<?xml version="1.0" encoding="UTF-8" standalone="no"?>
<!DOCTYPE svg PUBLIC "-//W3C//DTD SVG 1.1//EN" "http://www.w3.org/Graphics/SVG/1.1/DTD/svg11.dtd">
<svg width="100%" height="100%" viewBox="0 0 1600 1200" version="1.1" xmlns="http://www.w3.org/2000/svg" xmlns:xlink="http://www.w3.org/1999/xlink" xml:space="preserve" xmlns:serif="http://www.serif.com/" style="fill-rule:evenodd;clip-rule:evenodd;stroke-linejoin:round;stroke-miterlimit:2;">
    <g transform="matrix(1,0,0,1,96.9603,0.01)">
        <path d="M954.85,864.56C954.85,830.27 928.95,802.01 895.54,798.33L895.54,797.89L888.18,797.89C851.39,797.89 821.51,827.77 821.51,864.56C821.51,901.35 851.39,931.23 888.18,931.23L895.54,931.23L895.54,930.79C928.95,927.11 954.85,898.85 954.85,864.56Z" style="fill:rgb(177,181,186);fill-rule:nonzero;"/>
    </g>
    <g transform="matrix(1,0,0,1,96.9603,0.01)">
        <path d="M895.54,931.23C932.361,931.23 962.21,901.381 962.21,864.56C962.21,827.739 932.361,797.89 895.54,797.89C858.719,797.89 828.87,827.739 828.87,864.56C828.87,901.381 858.719,931.23 895.54,931.23Z" style="fill:rgb(133,137,144);fill-rule:nonzero;"/>
    </g>
    <g transform="matrix(1,0,0,1,96.9603,0.01)">
        <path d="M895.54,923.87C928.296,923.87 954.85,897.316 954.85,864.56C954.85,831.804 928.296,805.25 895.54,805.25C862.784,805.25 836.23,831.804 836.23,864.56C836.23,897.316 862.784,923.87 895.54,923.87Z" style="fill:white;fill-rule:nonzero;"/>
    </g>
    <g transform="matrix(1,0,0,1,96.9603,0.01)">
        <path d="M895.54,923.87C928.296,923.87 954.85,897.316 954.85,864.56C954.85,831.804 928.296,805.25 895.54,805.25C862.784,805.25 836.23,831.804 836.23,864.56C836.23,897.316 862.784,923.87 895.54,923.87Z" style="fill:rgb(133,137,144);fill-rule:nonzero;"/>
    </g>
    <g transform="matrix(1,0,0,1,96.9603,0.01)">
        <path d="M895.54,923.87C928.296,923.87 954.85,897.316 954.85,864.56C954.85,831.804 928.296,805.25 895.54,805.25C862.784,805.25 836.23,831.804 836.23,864.56C836.23,897.316 862.784,923.87 895.54,923.87Z" style="fill:white;fill-opacity:0.9;fill-rule:nonzero;"/>
    </g>
    <g transform="matrix(1,0,0,1,96.9603,0.01)">
        <path d="M895.54,805.25C894.51,805.25 893.48,805.25 892.3,805.4C923.5,807.02 948.37,832.92 948.37,864.56C948.37,896.2 923.5,922.1 892.3,923.72C893.33,923.72 894.36,923.87 895.54,923.87C928.36,923.87 954.85,897.38 954.85,864.56C954.85,831.74 928.36,805.25 895.54,805.25Z" style="fill:rgb(177,181,186);fill-rule:nonzero;"/>
    </g>
    <g transform="matrix(1,0,0,1,96.9603,0.01)">
        <path d="M896.13,869.12L876.41,829.97C875.67,828.5 876.26,826.59 877.73,825.85C879.2,825.11 881.11,825.7 881.85,827.17L898.77,860.87L921.29,849.83C922.76,849.09 924.67,849.68 925.41,851.3C926.15,852.77 925.56,854.68 923.94,855.42L896.13,869.12Z" style="fill:rgb(77,97,252);fill-rule:nonzero;"/>
    </g>
    <g transform="matrix(1,0,0,1,96.9603,0.01)">
        <path d="M946.32,895.02C951.77,886.04 954.86,875.59 954.86,864.41C954.86,831.59 928.37,805.1 895.55,805.1C893.93,805.1 892.31,805.25 890.69,805.25L946.32,895.02Z" style="fill:white;fill-opacity:0.5;fill-rule:nonzero;"/>
    </g>
    <g transform="matrix(1,0,0,1,96.9603,0.01)">
        <path d="M881.71,806.87C878.77,807.61 875.97,808.49 873.32,809.52L934.69,909C937.04,906.94 939.25,904.58 941.31,902.08L881.71,806.87Z" style="fill:white;fill-opacity:0.5;fill-rule:nonzero;"/>
    </g>
    <path d="M1430.67,1036.19L1512.83,606.55C1514.74,596.58 1513.9,586.29 1510.41,576.76L1426.5,347.82C1419.13,327.72 1400.94,313.57 1379.64,311.39L432.88,214.16C419.18,212.75 405.43,216.45 394.28,224.53L126.74,418.55C109.66,430.94 100.99,451.88 104.32,472.72L194.46,1037.07L1430.67,1036.19Z" style="fill:rgb(243,243,243);fill-rule:nonzero;"/>
    <g transform="matrix(1,0,0,1,96.9603,0.01)">
        <path d="M356.5,349.36L1216.89,349.36C1222.2,349.36 1226.5,353.66 1226.5,358.97L1226.5,1027.45C1226.5,1032.76 1222.2,1037.06 1216.89,1037.06L356.5,1037.06C351.19,1037.06 346.89,1032.76 346.89,1027.45L346.89,358.96C346.89,353.66 351.2,349.36 356.5,349.36Z" style="fill:rgb(177,181,186);fill-rule:nonzero;"/>
    </g>
    <g transform="matrix(1,0,0,1,96.9603,0.01)">
        <path d="M1216.98,349.36L356.42,349.36C351.16,349.36 346.9,353.62 346.9,358.88L346.9,381.33L1226.51,381.33L1226.51,358.88C1226.5,353.62 1222.24,349.36 1216.98,349.36Z" style="fill:rgb(38,50,56);fill-rule:nonzero;"/>
    </g>
    <g transform="matrix(1,0,0,1,96.9603,0.01)">
        <path d="M339.41,381.33L1219.03,381.33L1219.03,1027.42C1219.03,1032.7 1214.75,1036.99 1209.46,1036.99L348.98,1036.99C343.7,1036.99 339.41,1032.71 339.41,1027.42L339.41,381.33Z" style="fill:rgb(77,97,252);fill-rule:nonzero;"/>
    </g>
    <g transform="matrix(1,0,0,1,96.9603,0.01)">
        <path d="M339.42,381.33L1219.03,381.33L1219.03,1027.46C1219.03,1032.72 1214.77,1036.98 1209.51,1036.98L348.94,1036.98C343.68,1036.98 339.42,1032.72 339.42,1027.46L339.42,381.33Z" style="fill:rgb(217,220,222);fill-rule:nonzero;"/>
    </g>
    <g transform="matrix(1,0,0,1,96.9603,0.01)">
        <path d="M1209.46,349.36L348.98,349.36C343.7,349.36 339.41,353.64 339.41,358.93L339.41,381.33L1219.02,381.33L1219.02,358.93C1219.03,353.64 1214.74,349.36 1209.46,349.36Z" style="fill:rgb(77,97,252);fill-rule:nonzero;"/>
    </g>
    <g transform="matrix(1,0,0,1,96.9603,0.01)">
        <path d="M1209.5,349.36L348.94,349.36C343.68,349.36 339.42,353.62 339.42,358.88L339.42,381.33L1219.03,381.33L1219.03,358.88C1219.03,353.62 1214.76,349.36 1209.5,349.36Z" style="fill:rgb(97,101,109);fill-rule:nonzero;"/>
    </g>
    <path d="M1450.08,1038.22L169.96,1038.22C169.61,1038.22 169.37,1037.98 169.37,1037.63C169.37,1037.28 169.61,1037.04 169.96,1037.04L1450.19,1037.04C1450.54,1037.04 1450.78,1037.28 1450.78,1037.63C1450.78,1037.99 1450.43,1038.22 1450.08,1038.22Z" style="fill:rgb(178,182,187);fill-rule:nonzero;"/>
    <g transform="matrix(1,0,0,1,96.9603,0.01)">
        <path d="M389.18,599.38L389.19,949.99L847.98,949.97L847.97,599.36C847.97,590.33 840.65,583.01 831.62,583.01L405.54,583.03C396.5,583.02 389.18,590.35 389.18,599.38Z" style="fill:rgb(177,181,186);fill-rule:nonzero;"/>
    </g>
    <g transform="matrix(1,0,0,1,96.9603,0.01)">
        <path d="M378.72,623.06C377.71,623.37 376.71,623.44 375.67,623.25L364.76,621.27L375.66,624.16C376.73,624.44 377.87,624.29 378.82,623.73L379.59,623.28L378.72,623.06Z" style="fill-opacity:0.15;fill-rule:nonzero;"/>
    </g>
    <g transform="matrix(1,0,0,1,96.9603,0.01)">
        <path d="M364.23,624.97L382.35,628.82C382.35,628.82 382.72,629.41 382.77,629.81L364.23,624.97Z" style="fill-opacity:0.15;fill-rule:nonzero;"/>
    </g>
    <g transform="matrix(1,0,0,1,96.9603,0.01)">
        <path d="M375.98,630.4L370.08,626.49L370.69,626.65L376.16,629.8C376.16,629.8 376.18,629.9 375.98,630.4Z" style="fill-opacity:0.15;fill-rule:nonzero;"/>
    </g>
    <g transform="matrix(1,0,0,1,96.9603,0.01)">
        <path d="M233.56,981.93C234.68,986.04 234.87,987.54 234.77,991.56L234.86,1018.66C234.67,1023.33 233.36,1028 231.03,1032.12L230.47,1033.05C229.07,1035.48 226.55,1036.97 223.74,1036.97L215.98,1036.97C212.43,1036.97 209.35,1034.54 208.41,1031.08C207.38,1027.06 207.29,1022.86 208.04,1018.84L214.58,989.87C215.05,987.44 215.7,984.64 216.92,982.02L233.56,981.93Z" style="fill:rgb(77,97,252);fill-rule:nonzero;"/>
    </g>
    <g transform="matrix(1,0,0,1,96.9603,0.01)">
        <path d="M338.6,918.29L340.19,968.85C340.19,973.62 341.4,978.66 343.27,981.19L365.88,1020.53L360.65,1027.73L340.18,1017.54L321.96,984.65C322.05,979.04 321.4,975.68 320.46,968.11L311.4,912.32L338.6,918.29Z" style="fill:rgb(248,153,153);fill-rule:nonzero;"/>
    </g>
    <g transform="matrix(1,0,0,1,96.9603,0.01)">
        <path d="M340.09,986.23C338.03,983.15 335.32,975.95 334.76,972.59L332.33,954.55C332.14,953.15 331.12,952.12 329.71,951.93L317.28,950.25L317.09,947.54L339.52,947.54L340.17,969.03C340.26,972.49 340.92,978 343.25,981.37L365.86,1020.71L362.68,1026.04L340.09,986.23Z" style="fill-opacity:0.15;fill-rule:nonzero;"/>
    </g>
    <g transform="matrix(1,0,0,1,96.9603,0.01)">
        <path d="M376.54,1027.16L365.79,1020.62C358.03,1021.93 350.18,1018.94 345.14,1012.86L321.87,984.64C317.66,993.61 316.17,1003.61 317.57,1013.52L320.93,1036.88L323.64,1036.88L324.39,1012.86C324.48,1011.08 326.63,1010.34 327.75,1011.74L341.95,1029.12C345.97,1034.07 352.04,1036.97 358.4,1036.97L380.55,1036.97C382.33,1036.97 383.45,1035.19 382.79,1033.61C381.58,1030.71 379.34,1028.38 376.54,1027.16Z" style="fill:rgb(77,97,252);fill-rule:nonzero;"/>
    </g>
    <g transform="matrix(1,0,0,1,96.9603,0.01)">
        <path d="M234.59,969.69C233.47,979.41 232.91,989.22 233.09,999.03L233.28,1010.71C233.09,1015.85 228.89,1019.96 223.75,1019.96L222.16,1019.96C216.37,1019.96 211.88,1014.82 212.72,1009.12L215.43,995.29C216.83,988.28 217.3,981.09 216.93,973.89L214.31,926.7L238.7,927.07L234.59,969.69Z" style="fill:rgb(248,153,153);fill-rule:nonzero;"/>
    </g>
    <g transform="matrix(1,0,0,1,96.9603,0.01)">
        <path d="M311.21,590.57L329.33,650.29C331.76,677.67 334.2,706.72 334.95,734.2L340.65,947.45L316.07,947.45L270.37,648.69C270.09,646.63 268.31,645.23 266.26,645.23C264.11,645.23 262.34,646.91 262.15,649.06L238.41,947.44L214.21,947.25L203.56,726.52C201.6,685.78 205.43,644.94 214.96,605.32L218.6,590.37L311.21,590.57Z" style="fill:rgb(63,66,73);fill-rule:nonzero;"/>
    </g>
    <g transform="matrix(1,0,0,1,96.9603,0.01)">
        <path d="M236.64,947.45C236.64,947.45 233.74,977.73 233.46,981.75L233.46,981.84C233.09,987.54 232.99,993.24 233.09,998.94L233.28,1010.62C233.09,1015.57 229.17,1019.59 224.22,1019.78C228.71,1016.32 228.33,1010.72 228.43,1006.51L229.18,955.21C229.18,953.53 228.06,952.13 226.38,951.75L215.54,949.79L215.45,947.36L236.64,947.45Z" style="fill-opacity:0.15;fill-rule:nonzero;"/>
    </g>
    <g transform="matrix(1,0,0,1,96.9603,0.01)">
        <path d="M340.56,947.45L330.75,947.45L315.14,645.24C309.53,602.48 288.13,599.92 288.13,590.57L218.42,590.38L218.42,590.29L288.13,590.48L310.84,590.57L311.12,590.57L326.35,612.92C326.35,612.92 334.1,706.73 334.85,734.2L340.56,947.45Z" style="fill:rgb(50,53,58);fill-rule:nonzero;"/>
    </g>
    <g transform="matrix(1,0,0,1,96.9603,0.01)">
        <path d="M266.27,645.24C265.15,645.24 264.21,645.61 263.47,646.36C262.72,647.01 262.26,647.95 262.16,649.07L238.33,947.55L229.73,947.46L244.31,666.18C244.96,654.39 254.58,645.24 266.27,645.24Z" style="fill:rgb(50,53,58);fill-rule:nonzero;"/>
    </g>
    <g transform="matrix(1,0,0,1,96.9603,0.01)">
        <path d="M203.37,482.08C201.81,468.64 206.71,463.83 206.71,463.83L256.64,510.58C256.64,510.58 265.01,556.61 267.28,556.63C267.28,556.63 245.11,579.15 237.16,568.72C223.77,551.17 204.93,495.53 203.37,482.08Z" style="fill:rgb(77,97,252);fill-rule:nonzero;"/>
    </g>
    <g transform="matrix(1,0,0,1,96.9603,0.01)">
        <path d="M267.05,556.43C267.05,556.43 263.81,550.71 258.99,523C258.45,519.89 256.66,510.61 256.66,510.61C251.69,506.89 245.22,502.02 241.25,499.16C240.3,498.5 239.05,499.47 239.57,500.5L254.72,552.22C255.57,554.33 267.05,556.43 267.05,556.43Z" style="fill-opacity:0.15;fill-rule:nonzero;"/>
    </g>
    <g transform="matrix(1,0,0,1,96.9603,0.01)">
        <path d="M217.56,456.77L248.25,450.52L298.25,451.08L320.16,456.55C331.63,460.19 332.21,470.13 332.03,482.17L330.09,497.44L334.85,513.86C337.65,524.49 334.01,530.65 326.64,539.23C324.31,541.94 323.1,543.05 322.16,548.18L326.37,612.92L213.38,612.23C215.48,581.84 206.23,534.76 204.9,527.7C199.6,499.59 199.75,481.5 199.75,481.5C199.18,470.02 206.64,459.29 217.56,456.77Z" style="fill:rgb(77,97,252);fill-rule:nonzero;"/>
    </g>
    <g transform="matrix(1,0,0,1,96.9603,0.01)">
        <path d="M267.28,556.64L314.11,578.61L302.34,598.85C302.34,598.85 291.69,596.31 279.78,592.72C267.87,589.13 253.6,584.1 247.33,580.94C235.54,575.01 230.03,556.82 226.42,549.61" style="fill:rgb(77,97,252);fill-rule:nonzero;"/>
    </g>
    <g transform="matrix(1,0,0,1,96.9603,0.01)">
        <path d="M311.61,577.32L306.92,574.4L293.95,596.82L298.6,598.33L311.61,577.32Z" style="fill-opacity:0.6;fill-rule:nonzero;"/>
    </g>
    <g transform="matrix(1,0,0,1,96.9603,0.01)">
        <path d="M255.11,409.44L254.15,443.87C254.05,446.64 252.14,449.04 249.46,449.8L245.54,451.07L254.53,456.4C263.51,461.98 274.54,462.91 284.21,459.19C285.97,458.51 287.69,457.68 289.35,456.69L299.11,451.31L294.71,449.61C292.22,448.94 290.41,446.74 290.12,444.25L285.62,403.31L255.11,409.44Z" style="fill:rgb(248,153,153);fill-rule:nonzero;"/>
    </g>
    <g transform="matrix(1,0,0,1,96.9603,0.01)">
        <path d="M279.5,437.43L277.87,437.53C266.1,438.01 256.25,428.92 255.77,417.25L254.53,387.5C254.34,383.58 257.4,380.33 261.32,380.13L289.15,378.89C294.22,378.7 298.52,382.62 298.72,387.69L299.87,415.33C300.26,427 291.17,436.95 279.5,437.43Z" style="fill:rgb(248,153,153);fill-rule:nonzero;"/>
    </g>
    <g transform="matrix(1,0,0,1,96.9603,0.01)">
        <path d="M277.21,407.2C278.48,407.2 279.51,406.17 279.51,404.9C279.51,403.63 278.48,402.6 277.21,402.6C275.94,402.6 274.91,403.63 274.91,404.9C274.91,406.17 275.94,407.2 277.21,407.2Z" style="fill:rgb(33,37,43);fill-rule:nonzero;"/>
    </g>
    <g transform="matrix(1,0,0,1,96.9603,0.01)">
        <path d="M278.17,404.91C278.435,404.91 278.65,404.695 278.65,404.43C278.65,404.165 278.435,403.95 278.17,403.95C277.905,403.95 277.69,404.165 277.69,404.43C277.69,404.695 277.905,404.91 278.17,404.91Z" style="fill:white;fill-rule:nonzero;"/>
    </g>
    <g transform="matrix(1,0,0,1,96.9603,0.01)">
        <path d="M295.1,407.2C296.37,407.2 297.4,406.17 297.4,404.9C297.4,403.63 296.37,402.6 295.1,402.6C293.83,402.6 292.8,403.63 292.8,404.9C292.8,406.17 293.83,407.2 295.1,407.2Z" style="fill:rgb(33,37,43);fill-rule:nonzero;"/>
    </g>
    <g transform="matrix(1,0,0,1,96.9603,0.01)">
        <path d="M296.05,404.81C296.315,404.81 296.53,404.595 296.53,404.33C296.53,404.065 296.315,403.85 296.05,403.85C295.785,403.85 295.57,404.065 295.57,404.33C295.57,404.595 295.785,404.81 296.05,404.81Z" style="fill:white;fill-rule:nonzero;"/>
    </g>
    <g opacity="0.15">
        <g transform="matrix(1,0,0,1,96.9603,0.01)">
            <path d="M286.77,418.3L283.71,418.59C283.33,418.59 283.04,418.3 282.94,418.02C282.94,417.64 283.23,417.35 283.51,417.25L286.57,416.96C287.34,416.86 287.91,416.19 287.81,415.43C287.71,414.66 287.04,414.09 286.28,414.09C285.9,414.09 285.61,413.8 285.51,413.52C285.51,413.14 285.8,412.85 286.08,412.75C287.61,412.65 288.95,413.8 289.05,415.24C289.45,416.86 288.3,418.2 286.77,418.3Z" style="fill-opacity:0.15;fill-rule:nonzero;"/>
        </g>
    </g>
    <g transform="matrix(1,0,0,1,96.9603,0.01)">
        <path d="M254.85,418.49L258.1,418.49L254.66,425.37L254.85,418.49Z" style="fill-opacity:0.15;fill-rule:nonzero;"/>
    </g>
    <g transform="matrix(1,0,0,1,96.9603,0.01)">
        <path d="M289.15,434.62C285.9,436.53 282.17,437.39 278.25,437.59L275.67,437.59C275.38,437.59 275,437.59 274.71,437.49L274.52,437.49C274.04,437.39 273.56,437.39 272.99,437.3C272.8,437.3 272.61,437.2 272.42,437.2C269.07,436.63 266.59,435.48 264.96,434.52C264.67,434.33 264.29,434.42 264.1,434.71C263.91,435 264,435.38 264.29,435.57C266.39,436.81 269.65,438.25 274.05,438.73C276.35,440.45 280.27,442.56 285.24,442.56C286.87,442.56 288.49,442.37 290.02,441.99L289.15,434.62Z" style="fill-opacity:0.15;fill-rule:nonzero;"/>
    </g>
    <g transform="matrix(1,0,0,1,96.9603,0.01)">
        <path d="M288.5,421.93C288.79,421.93 288.98,422.22 288.88,422.5C287.73,424.7 285.53,426.23 282.95,426.23C280.37,426.23 278.17,424.7 277.02,422.5C276.92,422.21 277.02,421.93 277.4,421.93L288.5,421.93Z" style="fill:white;fill-rule:nonzero;"/>
    </g>
    <g transform="matrix(1,0,0,1,96.9603,0.01)">
        <path d="M245.55,451.08C245.55,467.46 276.31,480.52 276.31,480.52C276.31,480.52 299.11,467.7 299.11,451.32L294.04,449.39L245.55,451.08Z" style="fill:rgb(248,153,153);fill-rule:nonzero;"/>
    </g>
    <g transform="matrix(1,0,0,1,96.9603,0.01)">
        <path d="M295.67,398.11C292.8,398.4 290.31,399.93 288.78,402.13C286.2,401.27 284,401.84 283.04,402.23C281.32,399.36 278.07,397.54 274.43,397.83C269.36,398.21 265.53,402.71 265.92,407.78C266.3,412.85 270.8,416.68 275.87,416.29C280.94,415.91 284.77,411.41 284.38,406.34C284.28,405.29 284,404.33 283.61,403.37C284.47,403.08 286.29,402.7 288.2,403.27C287.43,404.7 287.15,406.43 287.24,408.15C287.62,413.22 292.12,417.05 297.19,416.66C302.26,416.28 306.09,411.78 305.7,406.71C305.31,401.64 300.83,397.83 295.67,398.11ZM275.97,415.04C271.57,415.42 267.74,412.07 267.36,407.67C266.98,403.27 270.33,399.44 274.73,399.06C279.13,398.68 282.96,402.03 283.34,406.43C283.62,410.83 280.27,414.76 275.97,415.04ZM297.1,415.43C292.7,415.81 288.87,412.46 288.49,408.06C288.11,403.66 291.46,399.83 295.86,399.45C300.26,399.07 304.09,402.42 304.47,406.82C304.85,411.22 301.5,415.04 297.1,415.43Z" style="fill:white;fill-rule:nonzero;"/>
    </g>
    <g transform="matrix(1,0,0,1,96.9603,0.01)">
        <path d="M252.68,419.39C252.68,419.39 242.51,419.12 241.41,408.98C240.33,398.75 252.89,398.21 253.58,408.46L253.81,419.6L252.68,419.39Z" style="fill:rgb(248,153,153);fill-rule:nonzero;"/>
    </g>
    <g transform="matrix(1,0,0,1,96.9603,0.01)">
        <path d="M245.07,404.03C246.26,403.38 247.26,403.28 248.18,403.55C249.1,403.82 249.84,404.55 250.4,405.72C250.96,406.9 251.27,408.32 251.1,409.75L251,410.8C250.95,411.57 249.56,411.7 249.65,410.74L249.68,409.58C249.75,409.2 249.71,407.35 249.14,406.27C248.72,405.41 248.23,404.93 247.68,404.73C247.13,404.53 246.42,404.69 245.56,405.11C245.24,405.24 244.87,405.17 244.64,404.84C244.59,404.52 244.75,404.16 245.07,404.03Z" style="fill-opacity:0.15;fill-rule:nonzero;"/>
    </g>
    <g transform="matrix(1,0,0,1,96.9603,0.01)">
        <path d="M252.243,415.911C252.449,414.821 251.733,413.769 250.642,413.563C249.551,413.356 248.5,414.073 248.293,415.163C248.086,416.254 248.803,417.306 249.894,417.512C250.984,417.719 252.036,417.002 252.243,415.911Z" style="fill:rgb(77,97,252);fill-rule:nonzero;"/>
    </g>
    <g transform="matrix(1,0,0,1,96.9603,0.01)">
        <path d="M250.82,417.38C249.58,417.24 248.71,416.2 248.84,414.96C248.91,414.58 249.09,414.13 249.34,413.89C248.8,414.18 248.39,414.78 248.27,415.44C248.15,416.59 248.95,417.52 250.09,417.64C250.47,417.71 250.97,417.61 251.31,417.38C251.12,417.34 250.93,417.31 250.82,417.38Z" style="fill-opacity:0.15;fill-rule:nonzero;"/>
    </g>
    <g transform="matrix(1,0,0,1,96.9603,0.01)">
        <path d="M303.08,386.9L293.87,373.82L283.34,380.74C290.15,380.74 297.38,381.99 298.73,390.92L299.11,397.1L303.08,386.9Z" style="fill:rgb(33,37,43);fill-rule:nonzero;"/>
    </g>
    <g transform="matrix(1,0,0,1,96.9603,0.01)">
        <path d="M324.55,585.11L267.08,549.65L248.69,500.93L273.2,546.66L324.03,577.04L324.55,585.11Z" style="fill-opacity:0.15;fill-rule:nonzero;"/>
    </g>
    <g transform="matrix(1,0,0,1,96.9603,0.01)">
        <path d="M199.84,485.96L232.29,563.28C236.29,573.15 244.42,580.77 254.52,584.13L326,607.3L326.36,612.91L248.02,590.65C241.03,588.41 235.47,583.07 232.94,576.18L199.84,485.96Z" style="fill-opacity:0.15;fill-rule:nonzero;"/>
    </g>
    <g transform="matrix(1,0,0,1,96.9603,0.01)">
        <path d="M367.25,370.15C369.906,370.15 372.06,367.996 372.06,365.34C372.06,362.683 369.906,360.53 367.25,360.53C364.593,360.53 362.44,362.683 362.44,365.34C362.44,367.996 364.593,370.15 367.25,370.15Z" style="fill:rgb(38,50,56);fill-rule:nonzero;"/>
    </g>
    <g transform="matrix(1,0,0,1,96.9603,0.01)">
        <path d="M393.37,370.15C396.027,370.15 398.18,367.996 398.18,365.34C398.18,362.683 396.027,360.53 393.37,360.53C390.714,360.53 388.56,362.683 388.56,365.34C388.56,367.996 390.714,370.15 393.37,370.15Z" style="fill:rgb(38,50,56);fill-rule:nonzero;"/>
    </g>
    <g transform="matrix(1,0,0,1,96.9603,0.01)">
        <path d="M419.49,370.15C422.146,370.15 424.3,367.996 424.3,365.34C424.3,362.683 422.146,360.53 419.49,360.53C416.833,360.53 414.68,362.683 414.68,365.34C414.68,367.996 416.833,370.15 419.49,370.15Z" style="fill:rgb(38,50,56);fill-rule:nonzero;"/>
    </g>
    <g transform="matrix(1,0,0,1,96.9603,0.01)">
        <path d="M1045.04,680.25L898.18,680.26L898.18,589.04C898.18,585.71 900.88,583.01 904.21,583.01L1039,583C1042.33,583 1045.03,585.7 1045.03,589.03L1045.04,680.25Z" style="fill:white;fill-rule:nonzero;"/>
    </g>
    <g transform="matrix(1,0,0,1,96.9603,0.01)">
        <path d="M988.28,631.63C988.28,640.84 980.82,648.3 971.61,648.3C962.4,648.3 954.94,640.84 954.94,631.63C954.94,622.42 962.4,614.96 971.61,614.96C980.81,614.96 988.28,622.42 988.28,631.63Z" style="fill:rgb(77,97,252);fill-rule:nonzero;"/>
    </g>
    <g transform="matrix(1,0,0,1,96.9603,0.01)">
        <path d="M988.28,631.63C988.28,640.84 980.82,648.3 971.61,648.3C962.4,648.3 954.94,640.84 954.94,631.63C954.94,622.42 962.4,614.96 971.61,614.96C980.81,614.96 988.28,622.42 988.28,631.63Z" style="fill:white;fill-opacity:0.7;fill-rule:nonzero;"/>
    </g>
    <g transform="matrix(1,0,0,1,96.9603,0.01)">
        <path d="M964.57,638.68L964.57,624.58L982.19,631.63L964.57,638.68Z" style="fill:white;fill-rule:nonzero;"/>
    </g>
    <g transform="matrix(1,0,0,1,96.9603,0.01)">
        <rect x="898.14" y="670.94" width="146.93" height="9.37" style="fill:rgb(235,235,235);fill-rule:nonzero;"/>
    </g>
    <g transform="matrix(1,0,0,1,96.9603,0.01)">
        <rect x="909.12" y="674.24" width="126.28" height="2.78" style="fill:rgb(177,181,186);fill-rule:nonzero;"/>
    </g>
    <g transform="matrix(1,0,0,1,96.9603,0.01)">
        <rect x="899.78" y="672.67" width="5.92" height="5.92" style="fill:rgb(177,181,186);fill-rule:nonzero;"/>
    </g>
    <g transform="matrix(1,0,0,1,96.9603,0.01)">
        <rect x="901.17" y="673.72" width="1.12" height="3.81" style="fill:rgb(97,101,109);fill-rule:nonzero;"/>
    </g>
    <g transform="matrix(1,0,0,1,96.9603,0.01)">
        <rect x="903.19" y="673.72" width="1.12" height="3.81" style="fill:rgb(97,101,109);fill-rule:nonzero;"/>
    </g>
    <g transform="matrix(1,0,0,1,96.9603,0.01)">
        <rect x="1037.76" y="672.66" width="5.92" height="5.92" style="fill:rgb(177,181,186);fill-rule:nonzero;"/>
    </g>
    <g transform="matrix(1,0,0,1,96.9603,0.01)">
        <rect x="1038.65" y="674.9" width="1.16" height="1.44" style="fill:rgb(97,101,109);fill-rule:nonzero;"/>
    </g>
    <g transform="matrix(1,0,0,1,96.9603,0.01)">
        <path d="M1041.11,677.26L1039.36,676.34L1039.36,674.9L1041.11,673.98L1041.11,677.26Z" style="fill:rgb(97,101,109);fill-rule:nonzero;"/>
    </g>
    <g transform="matrix(1,0,0,1,96.9603,0.01)">
        <path d="M1041.97,674.53C1042.06,674.44 1042.15,674.35 1042.23,674.26C1042.53,674.56 1042.72,674.92 1042.78,675.35C1042.87,675.98 1042.67,676.52 1042.24,676.98C1042.15,676.89 1042.06,676.8 1041.97,676.71C1042.26,676.41 1042.42,676.04 1042.42,675.62C1042.42,675.2 1042.26,674.83 1041.97,674.53Z" style="fill:rgb(97,101,109);fill-rule:nonzero;"/>
    </g>
    <g transform="matrix(1,0,0,1,96.9603,0.01)">
        <path d="M1041.7,676.45C1041.61,676.36 1041.52,676.27 1041.43,676.18C1041.58,676.03 1041.66,675.84 1041.66,675.62C1041.66,675.4 1041.58,675.22 1041.43,675.06C1041.52,674.97 1041.61,674.88 1041.69,674.79C1042.14,675.22 1042.18,675.98 1041.7,676.45Z" style="fill:rgb(97,101,109);fill-rule:nonzero;"/>
    </g>
    <g transform="matrix(1,0,0,1,96.9603,0.01)">
        <path d="M937.67,675.63C937.67,676.13 937.78,676.6 937.99,677.02L909.12,677.02L909.12,674.23L938.01,674.23C937.79,674.65 937.67,675.13 937.67,675.63Z" style="fill:rgb(97,101,109);fill-rule:nonzero;"/>
    </g>
    <g transform="matrix(1,0,0,1,96.9603,0.01)">
        <path d="M944.01,675.63C944.01,676.13 943.9,676.6 943.69,677.02C943.17,678.08 942.08,678.8 940.83,678.8C939.58,678.8 938.49,678.08 937.98,677.02C937.77,676.61 937.66,676.13 937.66,675.63C937.66,675.13 937.78,674.64 937.99,674.23C938.5,673.17 939.57,672.45 940.83,672.45C942.08,672.45 943.15,673.17 943.68,674.23C943.89,674.65 944.01,675.13 944.01,675.63Z" style="fill:rgb(97,101,109);fill-rule:nonzero;"/>
    </g>
    <g transform="matrix(1,0,0,1,96.9603,0.01)">
        <path d="M1111.54,604.96L1066.14,604.96C1063.24,604.96 1060.89,602.61 1060.89,599.71C1060.89,596.81 1063.24,594.46 1066.14,594.46L1111.54,594.46C1114.44,594.46 1116.79,596.81 1116.79,599.71C1116.8,602.6 1114.45,604.96 1111.54,604.96Z" style="fill:white;fill-rule:nonzero;"/>
    </g>
    <g transform="matrix(1,0,0,1,96.9603,0.01)">
        <path d="M1167.46,637.67L1063.83,637.67C1062.21,637.67 1060.89,636.35 1060.89,634.73C1060.89,633.11 1062.21,631.79 1063.83,631.79L1167.46,631.79C1169.08,631.79 1170.4,633.11 1170.4,634.73C1170.4,636.35 1169.09,637.67 1167.46,637.67Z" style="fill:white;fill-rule:nonzero;"/>
    </g>
    <g transform="matrix(1,0,0,1,96.9603,0.01)">
        <path d="M1167.46,654.03L1063.83,654.03C1062.21,654.03 1060.89,652.71 1060.89,651.09C1060.89,649.47 1062.21,648.15 1063.83,648.15L1167.46,648.15C1169.08,648.15 1170.4,649.47 1170.4,651.09C1170.4,652.71 1169.09,654.03 1167.46,654.03Z" style="fill:white;fill-rule:nonzero;"/>
    </g>
    <g transform="matrix(1,0,0,1,96.9603,0.01)">
        <path d="M1167.46,670.38L1063.83,670.38C1062.21,670.38 1060.89,669.06 1060.89,667.44C1060.89,665.82 1062.21,664.5 1063.83,664.5L1167.46,664.5C1169.08,664.5 1170.4,665.82 1170.4,667.44C1170.4,669.07 1169.09,670.38 1167.46,670.38Z" style="fill:white;fill-rule:nonzero;"/>
    </g>
    <g transform="matrix(1,0,0,1,96.9603,0.01)">
        <path d="M1045.04,815.17L898.18,815.18L898.18,723.96C898.18,720.63 900.88,717.93 904.21,717.93L1039.02,717.92C1042.35,717.92 1045.05,720.62 1045.05,723.95L1045.04,815.17Z" style="fill:white;fill-rule:nonzero;"/>
    </g>
    <g transform="matrix(1,0,0,1,96.9603,0.01)">
        <path d="M988.28,766.55C988.28,775.76 980.82,783.22 971.61,783.22C962.4,783.22 954.94,775.76 954.94,766.55C954.94,757.34 962.4,749.88 971.61,749.88C980.81,749.87 988.28,757.34 988.28,766.55Z" style="fill:rgb(77,97,252);fill-rule:nonzero;"/>
    </g>
    <g transform="matrix(1,0,0,1,96.9603,0.01)">
        <path d="M988.28,766.55C988.28,775.76 980.82,783.22 971.61,783.22C962.4,783.22 954.94,775.76 954.94,766.55C954.94,757.34 962.4,749.88 971.61,749.88C980.81,749.87 988.28,757.34 988.28,766.55Z" style="fill:white;fill-opacity:0.7;fill-rule:nonzero;"/>
    </g>
    <g transform="matrix(1,0,0,1,96.9603,0.01)">
        <path d="M964.57,773.6L964.57,759.5L982.19,766.55L964.57,773.6Z" style="fill:white;fill-rule:nonzero;"/>
    </g>
    <g transform="matrix(1,0,0,1,96.9603,0.01)">
        <rect x="898.13" y="805.56" width="146.93" height="9.37" style="fill:rgb(235,235,235);fill-rule:nonzero;"/>
    </g>
    <g transform="matrix(1,0,0,1,96.9603,0.01)">
        <rect x="909.11" y="808.86" width="126.28" height="2.78" style="fill:rgb(177,181,186);fill-rule:nonzero;"/>
    </g>
    <g transform="matrix(1,0,0,1,96.9603,0.01)">
        <rect x="899.78" y="807.29" width="5.92" height="5.92" style="fill:rgb(177,181,186);fill-rule:nonzero;"/>
    </g>
    <g transform="matrix(1,0,0,1,96.9603,0.01)">
        <rect x="901.17" y="808.34" width="1.12" height="3.81" style="fill:rgb(97,101,109);fill-rule:nonzero;"/>
    </g>
    <g transform="matrix(1,0,0,1,96.9603,0.01)">
        <rect x="903.19" y="808.34" width="1.12" height="3.81" style="fill:rgb(97,101,109);fill-rule:nonzero;"/>
    </g>
    <g transform="matrix(1,0,0,1,96.9603,0.01)">
        <rect x="1037.76" y="807.28" width="5.92" height="5.92" style="fill:rgb(177,181,186);fill-rule:nonzero;"/>
    </g>
    <g transform="matrix(1,0,0,1,96.9603,0.01)">
        <rect x="1038.64" y="809.52" width="1.16" height="1.44" style="fill:rgb(97,101,109);fill-rule:nonzero;"/>
    </g>
    <g transform="matrix(1,0,0,1,96.9603,0.01)">
        <path d="M1041.1,811.88L1039.35,810.96L1039.35,809.52L1041.1,808.6L1041.1,811.88Z" style="fill:rgb(97,101,109);fill-rule:nonzero;"/>
    </g>
    <g transform="matrix(1,0,0,1,96.9603,0.01)">
        <path d="M1041.96,809.15C1042.05,809.06 1042.14,808.97 1042.22,808.88C1042.52,809.18 1042.71,809.54 1042.77,809.97C1042.86,810.6 1042.66,811.14 1042.23,811.6C1042.14,811.51 1042.05,811.42 1041.96,811.33C1042.25,811.03 1042.41,810.66 1042.41,810.24C1042.42,809.81 1042.26,809.45 1041.96,809.15Z" style="fill:rgb(97,101,109);fill-rule:nonzero;"/>
    </g>
    <g transform="matrix(1,0,0,1,96.9603,0.01)">
        <path d="M1041.7,811.06C1041.61,810.97 1041.52,810.88 1041.43,810.79C1041.58,810.64 1041.66,810.45 1041.66,810.23C1041.66,810.01 1041.58,809.83 1041.43,809.67C1041.52,809.58 1041.61,809.49 1041.69,809.4C1042.14,809.84 1042.17,810.6 1041.7,811.06Z" style="fill:rgb(97,101,109);fill-rule:nonzero;"/>
    </g>
    <g transform="matrix(1,0,0,1,96.9603,0.01)">
        <path d="M937.67,810.25C937.67,810.75 937.78,811.22 937.99,811.64L909.12,811.64L909.12,808.85L938.01,808.85C937.79,809.27 937.67,809.75 937.67,810.25Z" style="fill:rgb(97,101,109);fill-rule:nonzero;"/>
    </g>
    <g transform="matrix(1,0,0,1,96.9603,0.01)">
        <path d="M944.01,810.25C944.01,810.75 943.9,811.22 943.69,811.64C943.17,812.7 942.08,813.42 940.83,813.42C939.58,813.42 938.49,812.7 937.98,811.64C937.77,811.23 937.66,810.75 937.66,810.25C937.66,809.75 937.78,809.26 937.99,808.85C938.5,807.79 939.57,807.07 940.83,807.07C942.08,807.07 943.15,807.79 943.68,808.85C943.88,809.26 944.01,809.75 944.01,810.25Z" style="fill:rgb(97,101,109);fill-rule:nonzero;"/>
    </g>
    <g transform="matrix(1,0,0,1,96.9603,0.01)">
        <path d="M1111.54,739.87L1066.14,739.87C1063.24,739.87 1060.89,737.52 1060.89,734.62C1060.89,731.72 1063.24,729.37 1066.14,729.37L1111.54,729.37C1114.44,729.37 1116.79,731.72 1116.79,734.62C1116.8,737.52 1114.45,739.87 1111.54,739.87Z" style="fill:white;fill-rule:nonzero;"/>
    </g>
    <g transform="matrix(1,0,0,1,96.9603,0.01)">
        <path d="M1167.46,772.58L1063.83,772.58C1062.21,772.58 1060.89,771.26 1060.89,769.64C1060.89,768.02 1062.21,766.7 1063.83,766.7L1167.46,766.7C1169.08,766.7 1170.4,768.02 1170.4,769.64C1170.4,771.27 1169.09,772.58 1167.46,772.58Z" style="fill:white;fill-rule:nonzero;"/>
    </g>
    <g transform="matrix(1,0,0,1,96.9603,0.01)">
        <path d="M1167.46,788.94L1063.83,788.94C1062.21,788.94 1060.89,787.62 1060.89,786C1060.89,784.38 1062.21,783.06 1063.83,783.06L1167.46,783.06C1169.08,783.06 1170.4,784.38 1170.4,786C1170.4,787.62 1169.09,788.94 1167.46,788.94Z" style="fill:white;fill-rule:nonzero;"/>
    </g>
    <g transform="matrix(1,0,0,1,96.9603,0.01)">
        <path d="M1167.46,805.3L1063.83,805.3C1062.21,805.3 1060.89,803.98 1060.89,802.36C1060.89,800.74 1062.21,799.42 1063.83,799.42L1167.46,799.42C1169.08,799.42 1170.4,800.74 1170.4,802.36C1170.4,803.98 1169.09,805.3 1167.46,805.3Z" style="fill:white;fill-rule:nonzero;"/>
    </g>
    <g transform="matrix(1,0,0,1,96.9603,0.01)">
        <path d="M1045.04,949.92L898.18,949.93L898.18,858.71C898.18,855.38 900.88,852.68 904.21,852.68L1039.02,852.67C1042.35,852.67 1045.05,855.37 1045.05,858.7L1045.04,949.92Z" style="fill:white;fill-rule:nonzero;"/>
    </g>
    <g transform="matrix(1,0,0,1,96.9603,0.01)">
        <path d="M988.28,901.3C988.28,910.51 980.82,917.97 971.61,917.97C962.4,917.97 954.94,910.51 954.94,901.3C954.94,892.09 962.4,884.63 971.61,884.63C980.81,884.63 988.28,892.09 988.28,901.3Z" style="fill:rgb(77,97,252);fill-rule:nonzero;"/>
    </g>
    <g transform="matrix(1,0,0,1,96.9603,0.01)">
        <path d="M988.28,901.3C988.28,910.51 980.82,917.97 971.61,917.97C962.4,917.97 954.94,910.51 954.94,901.3C954.94,892.09 962.4,884.63 971.61,884.63C980.81,884.63 988.28,892.09 988.28,901.3Z" style="fill:white;fill-opacity:0.7;fill-rule:nonzero;"/>
    </g>
    <g transform="matrix(1,0,0,1,96.9603,0.01)">
        <path d="M964.57,908.35L964.57,894.26L982.19,901.3L964.57,908.35Z" style="fill:white;fill-rule:nonzero;"/>
    </g>
    <g transform="matrix(1,0,0,1,96.9603,0.01)">
        <rect x="898.17" y="940.56" width="146.93" height="9.37" style="fill:rgb(235,235,235);fill-rule:nonzero;"/>
    </g>
    <g transform="matrix(1,0,0,1,96.9603,0.01)">
        <rect x="909.15" y="943.86" width="126.28" height="2.78" style="fill:rgb(177,181,186);fill-rule:nonzero;"/>
    </g>
    <g transform="matrix(1,0,0,1,96.9603,0.01)">
        <rect x="899.82" y="942.29" width="5.92" height="5.92" style="fill:rgb(177,181,186);fill-rule:nonzero;"/>
    </g>
    <g transform="matrix(1,0,0,1,96.9603,0.01)">
        <rect x="901.21" y="943.34" width="1.12" height="3.81" style="fill:rgb(97,101,109);fill-rule:nonzero;"/>
    </g>
    <g transform="matrix(1,0,0,1,96.9603,0.01)">
        <rect x="903.23" y="943.34" width="1.12" height="3.81" style="fill:rgb(97,101,109);fill-rule:nonzero;"/>
    </g>
    <g transform="matrix(1,0,0,1,96.9603,0.01)">
        <rect x="1037.8" y="942.28" width="5.92" height="5.92" style="fill:rgb(177,181,186);fill-rule:nonzero;"/>
    </g>
    <g transform="matrix(1,0,0,1,96.9603,0.01)">
        <rect x="1038.68" y="944.52" width="1.16" height="1.44" style="fill:rgb(97,101,109);fill-rule:nonzero;"/>
    </g>
    <g transform="matrix(1,0,0,1,96.9603,0.01)">
        <path d="M1041.14,946.88L1039.39,945.96L1039.39,944.52L1041.14,943.6L1041.14,946.88Z" style="fill:rgb(97,101,109);fill-rule:nonzero;"/>
    </g>
    <g transform="matrix(1,0,0,1,96.9603,0.01)">
        <path d="M1042,944.15C1042.09,944.06 1042.18,943.97 1042.26,943.88C1042.56,944.18 1042.75,944.54 1042.81,944.97C1042.9,945.6 1042.7,946.14 1042.27,946.6C1042.18,946.51 1042.09,946.42 1042,946.33C1042.29,946.03 1042.45,945.66 1042.45,945.24C1042.45,944.81 1042.3,944.45 1042,944.15Z" style="fill:rgb(97,101,109);fill-rule:nonzero;"/>
    </g>
    <g transform="matrix(1,0,0,1,96.9603,0.01)">
        <path d="M1041.74,946.07C1041.65,945.98 1041.56,945.89 1041.47,945.8C1041.62,945.65 1041.7,945.46 1041.7,945.24C1041.7,945.02 1041.62,944.84 1041.47,944.68C1041.56,944.59 1041.65,944.5 1041.73,944.41C1042.18,944.84 1042.21,945.6 1041.74,946.07Z" style="fill:rgb(97,101,109);fill-rule:nonzero;"/>
    </g>
    <g transform="matrix(1,0,0,1,96.9603,0.01)">
        <path d="M937.71,945.25C937.71,945.75 937.82,946.22 938.03,946.64L909.16,946.64L909.16,943.85L938.05,943.85C937.83,944.27 937.71,944.75 937.71,945.25Z" style="fill:rgb(97,101,109);fill-rule:nonzero;"/>
    </g>
    <g transform="matrix(1,0,0,1,96.9603,0.01)">
        <path d="M944.04,945.25C944.04,945.75 943.93,946.22 943.72,946.64C943.2,947.7 942.11,948.42 940.86,948.42C939.61,948.42 938.52,947.7 938.01,946.64C937.8,946.23 937.69,945.75 937.69,945.25C937.69,944.75 937.81,944.26 938.02,943.85C938.53,942.79 939.6,942.07 940.85,942.07C942.1,942.07 943.17,942.79 943.7,943.85C943.92,944.27 944.04,944.75 944.04,945.25Z" style="fill:rgb(97,101,109);fill-rule:nonzero;"/>
    </g>
    <g transform="matrix(1,0,0,1,96.9603,0.01)">
        <path d="M1111.54,874.63L1066.14,874.63C1063.24,874.63 1060.89,872.28 1060.89,869.38C1060.89,866.48 1063.24,864.13 1066.14,864.13L1111.54,864.13C1114.44,864.13 1116.79,866.48 1116.79,869.38C1116.8,872.28 1114.45,874.63 1111.54,874.63Z" style="fill:white;fill-rule:nonzero;"/>
    </g>
    <g transform="matrix(1,0,0,1,96.9603,0.01)">
        <path d="M1167.46,907.34L1063.83,907.34C1062.21,907.34 1060.89,906.02 1060.89,904.4C1060.89,902.78 1062.21,901.46 1063.83,901.46L1167.46,901.46C1169.08,901.46 1170.4,902.78 1170.4,904.4C1170.4,906.03 1169.09,907.34 1167.46,907.34Z" style="fill:white;fill-rule:nonzero;"/>
    </g>
    <g transform="matrix(1,0,0,1,96.9603,0.01)">
        <path d="M1167.46,923.7L1063.83,923.7C1062.21,923.7 1060.89,922.38 1060.89,920.76C1060.89,919.14 1062.21,917.82 1063.83,917.82L1167.46,917.82C1169.08,917.82 1170.4,919.14 1170.4,920.76C1170.4,922.38 1169.09,923.7 1167.46,923.7Z" style="fill:white;fill-rule:nonzero;"/>
    </g>
    <g transform="matrix(1,0,0,1,96.9603,0.01)">
        <path d="M1167.46,940.06L1063.83,940.06C1062.21,940.06 1060.89,938.74 1060.89,937.12C1060.89,935.5 1062.21,934.18 1063.83,934.18L1167.46,934.18C1169.08,934.18 1170.4,935.5 1170.4,937.12C1170.4,938.74 1169.09,940.06 1167.46,940.06Z" style="fill:white;fill-rule:nonzero;"/>
    </g>
    <g transform="matrix(1,0,0,1,96.9603,0.01)">
        <path d="M421.95,511.23L1133.53,511.23C1142.96,511.23 1150.61,503.58 1150.61,494.15C1150.61,484.72 1142.96,477.07 1133.53,477.07L421.95,477.07C412.52,477.07 404.87,484.72 404.87,494.15C404.87,503.59 412.52,511.23 421.95,511.23Z" style="fill:rgb(177,181,186);fill-rule:nonzero;"/>
    </g>
    <g transform="matrix(1,0,0,1,96.9603,0.01)">
        <path d="M456.28,499.9L1177.39,499.9C1187.18,499.9 1195.12,491.96 1195.12,482.17C1195.12,472.38 1187.18,464.44 1177.39,464.44L456.28,464.44C446.49,464.44 438.55,472.38 438.55,482.17C438.55,491.96 446.49,499.9 456.28,499.9Z" style="fill:rgb(77,97,252);fill-rule:nonzero;"/>
    </g>
    <g transform="matrix(1,0,0,1,96.9603,0.01)">
        <path d="M456.28,499.9L1177.39,499.9C1187.18,499.9 1195.12,491.96 1195.12,482.17C1195.12,472.38 1187.18,464.44 1177.39,464.44L456.28,464.44C446.49,464.44 438.55,472.38 438.55,482.17C438.55,491.96 446.49,499.9 456.28,499.9Z" style="fill:white;fill-opacity:0.7;fill-rule:nonzero;"/>
    </g>
    <g transform="matrix(1,0,0,1,96.9603,0.01)">
        <path d="M458.78,487.3C462.055,487.3 464.71,484.645 464.71,481.37C464.71,478.095 462.055,475.44 458.78,475.44C455.505,475.44 452.85,478.095 452.85,481.37C452.85,484.645 455.505,487.3 458.78,487.3Z" style="fill:rgb(77,97,252);fill-rule:nonzero;"/>
    </g>
    <g transform="matrix(1,0,0,1,96.9603,0.01)">
        <path d="M805.6,932.56L347.58,906.1L367.82,555.94C368.34,547 376,540.17 384.94,540.69L810.59,565.29C819.53,565.81 826.36,573.47 825.84,582.41L805.6,932.56Z" style="fill:rgb(77,97,252);fill-rule:nonzero;"/>
    </g>
    <g transform="matrix(1,0,0,1,96.9603,0.01)">
        <path d="M367.81,556.07L347.58,906.1L805.6,932.57L825.83,582.54C826.35,573.52 819.46,565.79 810.45,565.27L385.08,540.69C376.06,540.17 368.33,547.06 367.81,556.07Z" style="fill:white;fill-opacity:0.7;fill-rule:nonzero;"/>
    </g>
    <g transform="matrix(1,0,0,1,96.9603,0.01)">
        <path d="M630.68,728.55C629.36,751.37 609.79,768.81 586.96,767.49C564.14,766.17 546.7,746.6 548.02,723.77C549.34,700.95 568.91,683.51 591.74,684.83C614.56,686.15 632,705.72 630.68,728.55Z" style="fill:rgb(77,97,252);fill-rule:nonzero;"/>
    </g>
    <g transform="matrix(1,0,0,1,96.9603,0.01)">
        <path d="M570.91,742.62L572.93,707.68L615.6,727.68L570.91,742.62Z" style="fill:white;fill-rule:nonzero;"/>
    </g>
    <g transform="matrix(1,0,0,1,96.9603,0.01)">
        <path d="M349.392,873.118L347.488,906.172L805.468,932.551L807.372,899.497L349.392,873.118Z" style="fill:white;fill-rule:nonzero;"/>
    </g>
    <g transform="matrix(1,0,0,1,96.9603,0.01)">
        <path d="M387.491,886.999L386.926,896.802L772.04,918.984L772.605,909.181L387.491,886.999Z" style="fill:rgb(77,97,252);fill-rule:nonzero;"/>
    </g>
    <g transform="matrix(1,0,0,1,96.9603,0.01)">
        <path d="M387.491,886.999L386.926,896.802L772.04,918.984L772.605,909.181L387.491,886.999Z" style="fill:white;fill-opacity:0.7;fill-rule:nonzero;"/>
    </g>
    <g transform="matrix(1,0,0,1,96.9603,0.01)">
        <path d="M354.884,879.5L353.676,900.395L374.57,901.602L375.778,880.708L354.884,879.5Z" style="fill:white;fill-opacity:0.7;fill-rule:nonzero;"/>
    </g>
    <g transform="matrix(1,0,0,1,96.9603,0.01)">
        <path d="M360.83,897.09C359.74,897.03 358.9,896.09 358.97,895L359.52,885.51C359.58,884.42 360.52,883.58 361.61,883.65C362.7,883.71 363.54,884.65 363.47,885.74L362.92,895.23C362.86,896.32 361.92,897.15 360.83,897.09Z" style="fill:rgb(77,97,252);fill-rule:nonzero;"/>
    </g>
    <g transform="matrix(1,0,0,1,96.9603,0.01)">
        <path d="M367.97,897.5C366.88,897.44 366.04,896.5 366.11,895.41L366.66,885.92C366.72,884.83 367.66,883.99 368.75,884.06C369.84,884.12 370.68,885.06 370.61,886.15L370.06,895.64C370,896.73 369.06,897.56 367.97,897.5Z" style="fill:rgb(77,97,252);fill-rule:nonzero;"/>
    </g>
    <g opacity="0.3">
        <g transform="matrix(1,0,0,1,96.9603,0.01)">
            <path d="M360.83,897.09C359.74,897.03 358.9,896.09 358.97,895L359.52,885.51C359.58,884.42 360.52,883.58 361.61,883.65C362.7,883.71 363.54,884.65 363.47,885.74L362.92,895.23C362.86,896.32 361.92,897.15 360.83,897.09Z" style="fill-opacity:0.3;fill-rule:nonzero;"/>
        </g>
        <g transform="matrix(1,0,0,1,96.9603,0.01)">
            <path d="M367.97,897.5C366.88,897.44 366.04,896.5 366.11,895.41L366.66,885.92C366.72,884.83 367.66,883.99 368.75,884.06C369.84,884.12 370.68,885.06 370.61,886.15L370.06,895.64C370,896.73 369.06,897.56 367.97,897.5Z" style="fill-opacity:0.3;fill-rule:nonzero;"/>
        </g>
    </g>
    <g transform="matrix(1,0,0,1,96.9603,0.01)">
        <path d="M781.288,904.107L780.081,925.001L800.975,926.209L802.183,905.314L781.288,904.107Z" style="fill:rgb(77,97,252);fill-rule:nonzero;"/>
    </g>
    <g transform="matrix(1,0,0,1,96.9603,0.01)">
        <path d="M781.288,904.107L780.081,925.001L800.975,926.209L802.183,905.314L781.288,904.107Z" style="fill:white;fill-opacity:0.7;fill-rule:nonzero;"/>
    </g>
    <g transform="matrix(1,0,0,1,96.9603,0.01)">
        <path d="M783.96,912.204L783.667,917.275L787.75,917.511L788.043,912.44L783.96,912.204Z" style="fill:rgb(77,97,252);fill-rule:nonzero;"/>
    </g>
    <g transform="matrix(1,0,0,1,96.9603,0.01)">
        <path d="M792.24,921.02L786.25,917.4L786.55,912.34L792.91,909.44L792.24,921.02Z" style="fill:rgb(77,97,252);fill-rule:nonzero;"/>
    </g>
    <g transform="matrix(1,0,0,1,96.9603,0.01)">
        <path d="M795.84,911.55C796.17,911.25 796.5,910.96 796.83,910.66C797.82,911.79 798.42,913.1 798.53,914.6C798.7,916.85 797.91,918.72 796.29,920.25C795.99,919.91 795.7,919.58 795.4,919.25C796.5,918.24 797.13,916.99 797.22,915.49C797.3,913.99 796.81,912.68 795.84,911.55Z" style="fill:rgb(77,97,252);fill-rule:nonzero;"/>
    </g>
    <g transform="matrix(1,0,0,1,96.9603,0.01)">
        <path d="M794.5,918.26C794.21,917.93 793.92,917.6 793.62,917.27C794.18,916.76 794.51,916.12 794.55,915.34C794.59,914.57 794.34,913.9 793.84,913.32C794.17,913.02 794.5,912.73 794.83,912.44C796.31,914.02 796.28,916.71 794.5,918.26Z" style="fill:rgb(77,97,252);fill-rule:nonzero;"/>
    </g>
    <g opacity="0.3">
        <g transform="matrix(1,0,0,1,96.9603,0.01)">
            <g opacity="0.3">
                <path d="M783.96,912.204L783.667,917.275L787.75,917.511L788.043,912.44L783.96,912.204Z" style="fill-opacity:0.3;fill-rule:nonzero;"/>
                <path d="M792.24,921.02L786.25,917.4L786.55,912.34L792.91,909.44L792.24,921.02Z" style="fill-opacity:0.3;fill-rule:nonzero;"/>
            </g>
        </g>
        <g transform="matrix(1,0,0,1,96.9603,0.01)">
            <g opacity="0.3">
                <g opacity="0.3">
                    <path d="M795.84,911.55C796.17,911.25 796.5,910.96 796.83,910.66C797.82,911.79 798.42,913.1 798.53,914.6C798.7,916.85 797.91,918.72 796.29,920.25C795.99,919.91 795.7,919.58 795.4,919.25C796.5,918.24 797.13,916.99 797.22,915.49C797.3,913.99 796.81,912.68 795.84,911.55Z" style="fill-opacity:0.3;fill-rule:nonzero;"/>
                    <path d="M794.5,918.26C794.21,917.93 793.92,917.6 793.62,917.27C794.18,916.76 794.51,916.12 794.55,915.34C794.59,914.57 794.34,913.9 793.84,913.32C794.17,913.02 794.5,912.73 794.83,912.44C796.31,914.02 796.28,916.71 794.5,918.26Z" style="fill-opacity:0.3;fill-rule:nonzero;"/>
                </g>
            </g>
        </g>
    </g>
    <g transform="matrix(1,0,0,1,96.9603,0.01)">
        <path d="M488.06,897.71C487.96,899.47 488.25,901.17 488.89,902.67L386.98,896.78L387.55,886.95L489.5,892.84C488.7,894.26 488.17,895.95 488.06,897.71Z" style="fill:rgb(77,97,252);fill-rule:nonzero;"/>
    </g>
    <g transform="matrix(1,0,0,1,96.9603,0.01)">
        <path d="M510.44,899C510.34,900.76 509.86,902.41 509.04,903.83C506.98,907.46 503.01,909.77 498.59,909.52C494.17,909.26 490.49,906.51 488.9,902.67C488.25,901.17 487.96,899.47 488.07,897.71C488.17,895.95 488.7,894.26 489.51,892.84C491.53,889.21 495.46,886.89 499.88,887.15C504.3,887.41 507.94,890.16 509.57,894C510.21,895.5 510.54,897.24 510.44,899Z" style="fill:rgb(77,97,252);fill-rule:nonzero;"/>
    </g>
    <g opacity="0.3">
        <g transform="matrix(1,0,0,1,96.9603,0.01)">
            <path d="M488.06,897.71C487.96,899.47 488.25,901.17 488.89,902.67L386.98,896.78L387.55,886.95L489.5,892.84C488.7,894.26 488.17,895.95 488.06,897.71Z" style="fill-opacity:0.3;fill-rule:nonzero;"/>
        </g>
        <g transform="matrix(1,0,0,1,96.9603,0.01)">
            <path d="M510.44,899C510.34,900.76 509.86,902.41 509.04,903.83C506.98,907.46 503.01,909.77 498.59,909.52C494.17,909.26 490.49,906.51 488.9,902.67C488.25,901.17 487.96,899.47 488.07,897.71C488.17,895.95 488.7,894.26 489.51,892.84C491.53,889.21 495.46,886.89 499.88,887.15C504.3,887.41 507.94,890.16 509.57,894C510.21,895.5 510.54,897.24 510.44,899Z" style="fill-opacity:0.3;fill-rule:nonzero;"/>
        </g>
    </g>
    <g transform="matrix(1,0,0,1,96.9603,0.01)">
        <path d="M427.55,540.45C427.55,540.45 441.52,544.97 442.4,545.55C443.28,546.13 451.81,558.31 451.81,558.31L449.16,559C446.51,559.69 437.92,550.37 437.7,549.85C437.48,549.33 427.32,547.3 426.05,547.07C424.77,546.84 417.58,548.61 416.64,550.91C415.69,553.22 422.89,557.43 424.97,558.29C427.55,559.35 426.16,563.23 426.16,563.23C423.45,563.42 415.99,560.71 412.85,558.81C409.71,556.91 402.31,552.35 399.72,552.08C397.13,551.8 371.98,553.99 371.98,553.99L312.15,556.65C302.21,557.09 295.07,547.21 298.62,537.91L318.16,486.64L331.82,473.2L341.26,532.89C341.26,532.89 425.63,535.41 426.94,535.57C428.25,535.73 455.35,543.95 455.78,544.66C456.21,545.37 451.92,549.01 443.47,546.77L442.4,545.53L427.55,540.45Z" style="fill:rgb(248,153,153);fill-rule:nonzero;"/>
    </g>
    <g transform="matrix(1,0,0,1,96.9603,0.01)">
        <path d="M436.61,538.37L450.04,537.26C450.04,537.26 449.98,540.32 447.08,541.62L436.61,538.37Z" style="fill:rgb(248,153,153);fill-rule:nonzero;"/>
    </g>
    <g transform="matrix(1,0,0,1,96.9603,0.01)">
        <path d="M430.1,536.44C430.1,536.44 440.97,534.76 441.6,534.81C442.45,534.89 444.01,536.76 442.03,537.92L436.6,538.37L430.1,536.44Z" style="fill:rgb(248,153,153);fill-rule:nonzero;"/>
    </g>
    <g transform="matrix(1,0,0,1,96.9603,0.01)">
        <path d="M443.44,546.77C442.74,545.99 441.92,545.4 440.93,545.03L430.57,541.08L441.39,544.24C442.45,544.55 443.35,545.27 443.88,546.24L444.31,547.02L443.44,546.77Z" style="fill-opacity:0.15;fill-rule:nonzero;"/>
    </g>
    <g transform="matrix(1,0,0,1,96.9603,0.01)">
        <path d="M432.02,537.64L449.52,543.72C449.52,543.72 450.14,543.4 450.39,543.09L432.02,537.64Z" style="fill-opacity:0.15;fill-rule:nonzero;"/>
    </g>
    <g transform="matrix(1,0,0,1,96.9603,0.01)">
        <path d="M444.89,539.07L437.82,539.36L438.43,539.54L444.74,539.67C444.74,539.68 444.8,539.61 444.89,539.07Z" style="fill-opacity:0.15;fill-rule:nonzero;"/>
    </g>
    <g transform="matrix(1,0,0,1,96.9603,0.01)">
        <path d="M383.03,534.13L343.49,532.19L331.82,473.2L318.16,486.64L298.62,537.91C295.08,547.21 302.21,557.09 312.15,556.65C312.15,556.65 371.72,554.3 378.74,553.43L383.03,534.13Z" style="fill:rgb(77,97,252);fill-rule:nonzero;"/>
    </g>
    <g transform="matrix(1,0,0,1,96.9603,0.01)">
        <path d="M383.03,534.13L378.74,553.43L375.1,553.75L379.06,533.93L383.03,534.13Z" style="fill-opacity:0.6;fill-rule:nonzero;"/>
    </g>
    <g transform="matrix(1,0,0,1,96.9603,0.01)">
        <path d="M331.96,474.39C331.96,474.39 333.09,477.72 330.07,497.44L334.84,513.74C336.95,520.96 335.33,528.76 330.52,534.54L324.54,541.73C324.54,541.73 322.44,543.95 322.14,548.18C321.84,552.41 322.66,556.23 322.66,556.23L332.06,555.77L375.09,553.75L376.16,548.42L339.04,548.75C337.77,544.6 343.48,532.19 343.48,532.19L331.96,474.39Z" style="fill-opacity:0.15;fill-rule:nonzero;"/>
    </g>
    <g transform="matrix(1,0,0,1,96.9603,0.01)">
        <path d="M421.98,562.4C416.41,559.96 404.97,550.07 402.02,549.44C399.07,548.81 379.85,548.43 379.85,548.43L378.74,553.43C378.74,553.43 398.38,551.73 399.72,552.08C401.06,552.43 405.91,554.45 411.64,558.08C417.37,561.71 421.98,562.4 421.98,562.4Z" style="fill-opacity:0.15;fill-rule:nonzero;"/>
    </g>
    <g transform="matrix(1,0,0,1,96.9603,0.01)">
        <path d="M298.6,598.33L338.76,611.5C338.76,611.5 358.51,623.64 361.24,624.29C363.96,624.94 387.5,630.09 388.18,629.79C388.86,629.49 388.06,625.84 385.49,624.97C383.75,624.38 378.73,623.07 378.73,623.07L377.31,623.38L364.77,621.28C364.77,621.28 375.47,623.49 377.44,623.37C379.41,623.25 391.27,618.09 391.27,618.09C391.27,618.09 390.78,615.99 388.42,615.5C386.06,615.01 378.17,617.53 373.5,617.53C368.83,617.53 361.33,611.5 361.02,608.55C360.71,605.6 368.51,605.81 368.51,605.81C374.87,605.98 378.92,603.31 371.84,601.07C364.76,598.83 352.74,600.42 349.95,599.66C347.15,598.9 344.8,597.3 344.8,597.3L311.6,577.31L298.74,598.15" style="fill:rgb(248,153,153);fill-rule:nonzero;"/>
    </g>
    <g transform="matrix(1,0,0,1,96.9603,0.01)">
        <path d="M369.77,626.18L382.8,633.56C383.42,630.17 382.35,628.82 382.35,628.82L369.77,626.18Z" style="fill:rgb(248,153,153);fill-rule:nonzero;"/>
    </g>
    <g transform="matrix(1,0,0,1,96.9603,0.01)">
        <path d="M376.16,629.8C375.52,633.45 371.46,631.14 370.79,630.2C370.12,629.26 364.22,624.97 364.22,624.97L373.43,624.97L376.16,629.8Z" style="fill:rgb(248,153,153);fill-rule:nonzero;"/>
    </g>
    <g transform="matrix(1,0,0,1,96.9603,0.01)">
        <path d="M277.22,446.27C282.798,446.27 287.32,441.748 287.32,436.17C287.32,430.592 282.798,426.07 277.22,426.07C271.642,426.07 267.12,430.592 267.12,436.17C267.12,441.748 271.642,446.27 277.22,446.27Z" style="fill:rgb(33,37,43);fill-rule:nonzero;"/>
    </g>
    <g transform="matrix(1,0,0,1,96.9603,0.01)">
        <path d="M325.4,426.409C327.76,424.389 329.46,421.549 330,418.199C331.11,411.289 326.6,404.469 319.8,402.789C312.23,400.919 304.7,405.719 303.14,413.289C302.17,417.969 303.73,422.579 306.88,425.719C305.33,426.719 304.05,428.109 303.18,429.789C300.87,426.669 297.26,424.499 292.91,424.259C286.82,423.919 281.14,427.819 279.25,433.619C276.68,441.509 281.56,449.659 289.46,451.289C294.47,452.319 299.39,450.469 302.52,446.869C304.2,444.929 306.9,444.079 309.34,444.869C310.36,445.199 311.46,445.389 312.62,445.409C317.01,445.469 321.08,442.689 322.64,438.579C323.4,436.579 323.53,434.539 323.16,432.649C322.7,430.309 323.59,427.959 325.4,426.409Z" style="fill:rgb(33,37,43);fill-rule:nonzero;"/>
    </g>
    <g transform="matrix(1,0,0,1,96.9603,0.01)">
        <path d="M321.5,403.34C316.03,400.39 311.24,397.46 311.66,391.84C311.77,390.37 312.2,387.87 312.2,387.87L304.55,381.63L288.35,379.61L285.83,423.99L304.69,433.42L321.5,403.34Z" style="fill:rgb(33,37,43);fill-rule:nonzero;"/>
    </g>
    <g transform="matrix(1,0,0,1,96.9603,0.01)">
        <path d="M255.5,409.159L254.26,444.039C254.14,446.849 252.18,449.259 249.47,450.009L245.49,451.109L254.56,456.729C263.61,462.449 274.78,463.479 284.61,459.789C286.4,459.119 288.15,458.279 289.84,457.289L299.77,451.449L295.32,450.159C292.81,449.459 290.98,447.219 290.71,444.699L286.48,403.189L255.5,409.159Z" style="fill:rgb(245,150,150);fill-rule:nonzero;"/>
    </g>
    <g transform="matrix(1,0,0,1,96.9603,0.01)">
        <path d="M279.99,437.7L278.34,437.78C266.42,438.17 256.51,428.89 256.11,417.06L255.08,386.91C254.92,382.94 258.04,379.66 262.02,379.5L290.23,378.46C295.37,378.31 299.7,382.31 299.85,387.45L300.8,415.47C301.1,427.3 291.82,437.3 279.99,437.7Z" style="fill:rgb(245,150,150);fill-rule:nonzero;"/>
    </g>
    <g transform="matrix(1,0,0,1,96.9603,0.01)">
        <path d="M277.93,407.05C279.217,407.05 280.26,406.006 280.26,404.72C280.26,403.433 279.217,402.39 277.93,402.39C276.643,402.39 275.6,403.433 275.6,404.72C275.6,406.006 276.643,407.05 277.93,407.05Z" style="fill:rgb(33,37,43);fill-rule:nonzero;"/>
    </g>
    <g transform="matrix(1,0,0,1,96.9603,0.01)">
        <path d="M278.89,404.73C279.155,404.73 279.37,404.515 279.37,404.25C279.37,403.984 279.155,403.77 278.89,403.77C278.625,403.77 278.41,403.984 278.41,404.25C278.41,404.515 278.625,404.73 278.89,404.73Z" style="fill:white;fill-rule:nonzero;"/>
    </g>
    <g transform="matrix(1,0,0,1,96.9603,0.01)">
        <path d="M296.05,407.2C297.337,407.2 298.38,406.156 298.38,404.87C298.38,403.583 297.337,402.54 296.05,402.54C294.763,402.54 293.72,403.583 293.72,404.87C293.72,406.156 294.763,407.2 296.05,407.2Z" style="fill:rgb(33,37,43);fill-rule:nonzero;"/>
    </g>
    <g transform="matrix(1,0,0,1,96.9603,0.01)">
        <path d="M297.02,404.779C297.285,404.779 297.5,404.564 297.5,404.299C297.5,404.034 297.285,403.819 297.02,403.819C296.755,403.819 296.54,404.034 296.54,404.299C296.54,404.564 296.755,404.779 297.02,404.779Z" style="fill:white;fill-rule:nonzero;"/>
    </g>
    <g opacity="0.15">
        <g transform="matrix(1,0,0,1,96.9603,0.01)">
            <path d="M287.51,418.37L284.41,418.64C284.02,418.64 283.73,418.34 283.64,418.05C283.64,417.66 283.94,417.37 284.23,417.28L287.33,417.01C288.11,416.92 288.69,416.25 288.6,415.47C288.51,414.69 287.84,414.11 287.06,414.1C286.67,414.1 286.38,413.8 286.29,413.51C286.29,413.12 286.59,412.83 286.88,412.74C288.43,412.66 289.78,413.83 289.86,415.28C290.23,416.94 289.06,418.29 287.51,418.37Z" style="fill-opacity:0.15;fill-rule:nonzero;"/>
        </g>
    </g>
    <g transform="matrix(1,0,0,1,96.9603,0.01)">
        <path d="M289.78,434.929C286.47,436.839 282.68,437.689 278.71,437.849C277.84,437.839 276.97,437.839 276.09,437.829C275.8,437.829 275.41,437.819 275.12,437.729L274.93,437.729C274.45,437.629 273.96,437.629 273.38,437.519C273.19,437.519 272.99,437.419 272.8,437.419C269.41,436.809 266.9,435.629 265.26,434.649C264.97,434.449 264.58,434.549 264.39,434.839C264.19,435.129 264.29,435.519 264.58,435.709C266.7,436.989 269.99,438.469 274.44,438.979C276.75,440.739 280.71,442.909 285.75,442.939C287.4,442.949 289.05,442.769 290.6,442.399L289.78,434.929Z" style="fill-opacity:0.15;fill-rule:nonzero;"/>
    </g>
    <g transform="matrix(1,0,0,1,96.9603,0.01)">
        <path d="M289.22,422.07C289.51,422.07 289.7,422.36 289.6,422.65C288.42,424.87 286.18,426.4 283.56,426.38C280.94,426.36 278.73,424.79 277.58,422.55C277.49,422.26 277.58,421.97 277.97,421.97L289.22,422.07Z" style="fill:white;fill-rule:nonzero;"/>
    </g>
    <g transform="matrix(1,0,0,1,96.9603,0.01)">
        <path d="M245.48,451.11C245.35,467.7 276,481.53 276,481.53C276,481.53 299.63,468.07 299.76,451.47L294.63,449.93L245.48,451.11Z" style="fill:rgb(245,150,150);fill-rule:nonzero;"/>
    </g>
    <g transform="matrix(1,0,0,1,96.9603,0.01)">
        <path d="M296.68,397.99C293.77,398.26 291.24,399.79 289.67,402.01C287.06,401.12 284.83,401.68 283.85,402.06C282.13,399.14 278.85,397.27 275.16,397.53C270.02,397.88 266.11,402.4 266.46,407.54C266.81,412.68 271.33,416.59 276.47,416.24C281.61,415.89 285.52,411.37 285.17,406.23C285.08,405.16 284.8,404.19 284.42,403.22C285.29,402.94 287.14,402.56 289.07,403.16C288.28,404.61 287.98,406.35 288.06,408.09C288.41,413.23 292.93,417.14 298.07,416.79C303.21,416.44 307.12,411.92 306.77,406.78C306.44,401.66 301.91,397.74 296.68,397.99ZM276.58,414.99C272.12,415.34 268.27,411.92 267.92,407.46C267.57,403 270.99,399.15 275.45,398.8C279.91,398.45 283.76,401.87 284.11,406.33C284.37,410.79 280.95,414.74 276.58,414.99ZM298,415.55C293.54,415.9 289.69,412.48 289.34,408.02C288.99,403.56 292.41,399.71 296.87,399.36C301.33,399.01 305.18,402.43 305.53,406.89C305.88,411.34 302.46,415.19 298,415.55Z" style="fill:white;fill-rule:nonzero;"/>
    </g>
    <g transform="matrix(1,0,0,1,96.9603,0.01)">
        <path d="M255.53,468.43L293.4,466.81C293.4,466.81 291.29,469.91 285.96,474.47C281.53,478.26 275.99,481.53 275.99,481.53C275.99,481.53 270.59,479.08 264.65,475.24C258.89,471.52 255.53,468.43 255.53,468.43Z" style="fill:rgb(33,37,43);fill-rule:nonzero;"/>
    </g>
    <g transform="matrix(1,0,0,1,96.9603,0.01)">
        <path d="M312.17,388C313.46,379.56 309.9,372.84 301.94,372.42C299.88,372.31 297.74,373 296.27,373.12C292.93,373.37 289.72,371.92 287.61,369.32C284.04,364.91 278.47,359.73 271.65,359.91C263.68,360.12 258.29,367.75 258.62,372.96C240.33,370.96 234.41,383.6 233.52,388.55C233.3,389.75 232.44,390.7 231.26,391C227.18,392.05 224.06,395.62 223.78,400.05C223.58,403.27 224.94,406.22 227.2,408.19C229.26,410.2 231.24,412.42 231.04,415.53C230.96,416.78 230.71,417.72 229.96,419.25C229.21,420.54 227.91,422.97 227.69,424.55C224.55,447.16 250.72,447.84 253.98,447.9C265.32,448.12 268.68,440.02 268.13,435.61C267.69,432.05 264.53,429.3 261.65,427.27C259.71,425.9 258.22,423.93 257.67,421.62C257.45,420.7 257.36,419.74 257.43,418.75C257.5,417.55 257.79,416.41 258.25,415.37C258.54,414.72 257.46,414 257.87,413.43L257.12,413.38C258.5,411.69 255.64,410.56 255.79,408.22C256,404.77 256.17,401.86 256.26,400.41C256.26,400.41 265.91,399.23 267.57,384.1C268.83,384.55 270.16,384.85 271.56,384.93C276.46,385.23 280.94,383.05 283.78,379.46L283.78,379.47L283.91,379.44C284.36,386.59 290.07,392.46 297.41,392.92C302.3,393.22 305.75,390.93 307.8,387.28L312.17,388Z" style="fill:rgb(33,37,43);fill-rule:nonzero;"/>
    </g>
    <g transform="matrix(1,0,0,1,96.9603,0.01)">
        <path d="M257.88,418.94C257.88,418.94 247.58,419.39 245.75,409.22C243.93,398.96 256.59,397.51 258.01,407.83L259.03,419.07L257.88,418.94Z" style="fill:rgb(245,150,150);fill-rule:nonzero;"/>
    </g>
    <g transform="matrix(1,0,0,1,96.9603,0.01)">
        <path d="M249.1,403.96C250.26,403.22 251.26,403.04 252.21,403.25C253.16,403.46 253.96,404.14 254.61,405.29C255.26,406.44 255.68,407.85 255.6,409.31L255.57,410.38C255.58,411.16 254.18,411.39 254.2,410.41L254.14,409.23C254.19,408.85 254.01,406.97 253.36,405.92C252.87,405.08 252.34,404.63 251.77,404.47C251.2,404.31 250.5,404.52 249.66,405C249.35,405.16 248.96,405.11 248.71,404.79C248.64,404.49 248.78,404.12 249.1,403.96Z" style="fill-opacity:0.15;fill-rule:nonzero;"/>
    </g>
    <g transform="matrix(1,0,0,1,96.9603,0.01)">
        <path d="M255.2,417.27C256.327,417.27 257.24,416.357 257.24,415.23C257.24,414.103 256.327,413.19 255.2,413.19C254.073,413.19 253.16,414.103 253.16,415.23C253.16,416.357 254.073,417.27 255.2,417.27Z" style="fill:rgb(77,97,252);fill-rule:nonzero;"/>
    </g>
    <g transform="matrix(1,0,0,1,96.9603,0.01)">
        <path d="M255.86,417.05C254.6,417 253.64,416.01 253.69,414.75C253.74,414.36 253.89,413.9 254.11,413.63C253.58,413.96 253.22,414.6 253.14,415.27C253.1,416.44 253.97,417.32 255.14,417.36C255.53,417.41 256.03,417.27 256.35,417.01C256.16,416.98 255.96,416.96 255.86,417.05Z" style="fill-opacity:0.15;fill-rule:nonzero;"/>
    </g>
</svg>
