<?xml version="1.0" encoding="UTF-8" standalone="no"?>
<!DOCTYPE svg PUBLIC "-//W3C//DTD SVG 1.1//EN" "http://www.w3.org/Graphics/SVG/1.1/DTD/svg11.dtd">
<svg width="100%" height="100%" viewBox="0 0 1005 712" version="1.1" xmlns="http://www.w3.org/2000/svg" xmlns:xlink="http://www.w3.org/1999/xlink" xml:space="preserve" xmlns:serif="http://www.serif.com/" style="fill-rule:evenodd;clip-rule:evenodd;stroke-linejoin:round;stroke-miterlimit:2;">
    <rect x="713.674" y="564.648" width="267.145" height="1.875" style="fill:rgb(63,61,86);"/>
    <rect x="784.913" y="601.205" width="219.34" height="1.875" style="fill:rgb(63,61,86);"/>
    <rect x="838.334" y="231.233" width="1.875" height="335.244" style="fill:rgb(63,61,86);"/>
    <ellipse cx="839.633" cy="454.323" rx="36.557" ry="83.424" style="fill:rgb(63,61,86);"/>
    <ellipse cx="839.633" cy="264.04" rx="36.557" ry="83.424" style="fill:rgb(63,61,86);"/>
    <g transform="matrix(1,0,0,1,-97.8734,-94.0284)">
        <path d="M854.21,634.409L829.839,634.409L829.839,610.038L854.21,610.038L854.21,634.409ZM831.714,632.534L852.336,632.534L852.336,611.913L831.714,611.913L831.714,632.534Z" style="fill:rgb(63,61,86);fill-rule:nonzero;"/>
    </g>
    <g transform="matrix(1,0,0,1,-97.8734,-94.0284)">
        <path d="M268.773,587.551C268.804,650.582 231.343,672.605 185.124,672.627C184.051,672.628 182.982,672.617 181.919,672.593C179.777,672.548 177.657,672.451 175.56,672.303C133.844,669.37 101.421,646.251 101.393,587.632C101.363,526.969 178.858,450.376 184.669,444.713C184.675,444.713 184.675,444.713 184.68,444.707C184.9,444.492 185.013,444.384 185.013,444.384C185.013,444.384 268.743,524.525 268.773,587.551Z" style="fill:rgb(108,99,255);fill-rule:nonzero;"/>
    </g>
    <g transform="matrix(1,0,0,1,-97.8734,-94.0284)">
        <path d="M182.074,662.988L212.662,620.206L181.999,667.682L181.919,672.593C179.777,672.548 177.657,672.451 175.56,672.303L178.827,609.245L178.801,608.757L178.857,608.665L179.168,602.706L148.382,555.141L179.258,598.242L179.336,599.506L181.804,551.863L155.445,502.709L182.123,543.49L184.669,444.713L184.679,444.384L184.68,444.707L184.286,522.604L210.483,491.71L184.176,529.312L183.504,571.972L207.97,531.022L183.409,578.244L183.035,601.965L218.542,544.962L182.901,610.24L182.074,662.988Z" style="fill:rgb(63,61,86);fill-rule:nonzero;"/>
    </g>
    <rect x="3.607" y="577.648" width="158.412" height="1.875" style="fill:rgb(63,61,86);"/>
    <g transform="matrix(1,0,0,1,-97.8734,-94.0284)">
        <path d="M112.22,457.256C106.049,457.256 100.972,452.179 100.972,446.008C100.972,439.837 106.049,434.76 112.22,434.76C118.39,434.76 123.468,439.837 123.468,446.008C123.468,446.008 123.468,446.008 123.468,446.008C123.461,452.176 118.388,457.249 112.22,457.256ZM112.22,436.635C107.078,436.635 102.846,440.866 102.846,446.008C102.846,451.15 107.078,455.382 112.22,455.382C117.362,455.382 121.593,451.15 121.593,446.008C121.587,440.868 117.36,436.64 112.22,436.635Z" style="fill:rgb(63,61,86);fill-rule:nonzero;"/>
    </g>
    <g transform="matrix(1,0,0,1,-97.8734,-94.0284)">
        <path d="M272.023,415.023L247.651,415.023L247.651,390.651L272.023,390.651L272.023,415.023ZM249.526,413.148L270.148,413.148L270.148,392.526L249.526,392.526L249.526,413.148Z" style="fill:rgb(63,61,86);fill-rule:nonzero;"/>
    </g>
    <ellipse cx="417.5" cy="645.299" rx="417.5" ry="9.697" style="fill:rgb(63,61,86);"/>
    <ellipse cx="417.5" cy="677.375" rx="289.038" ry="6.714" style="fill:rgb(63,61,86);"/>
    <ellipse cx="417.632" cy="706.467" rx="235.781" ry="5.477" style="fill:rgb(63,61,86);"/>
    <g transform="matrix(1,0,0,1,-97.8734,-94.0284)">
        <path d="M720.887,562.423L719.515,591.245L785.394,613.205C785.394,613.205 781.962,576.834 784.021,573.403L720.887,562.423Z" style="fill:rgb(255,184,184);fill-rule:nonzero;"/>
    </g>
    <path d="M515.96,596.722L509.784,620.74L538.606,620.74L538.606,596.722L515.96,596.722Z" style="fill:rgb(255,184,184);fill-rule:nonzero;"/>
    <path d="M665.561,603.107L678.599,607.702L685.461,590.471L673.795,581.281L665.561,603.107Z" style="fill:rgb(160,97,106);fill-rule:nonzero;"/>
    <g transform="matrix(1,0,0,1,-97.8734,-94.0284)">
        <path d="M786.538,667.227C786.538,667.227 805.981,664.673 805.981,681.143C805.981,697.612 808.726,738.101 781.276,733.297C781.276,733.297 768.924,734.669 773.727,720.258C773.727,720.258 778.617,714.396 776.859,710.808C775.1,707.22 764.806,704.475 766.179,702.416C767.551,700.357 782.649,683.888 782.649,683.888L786.538,667.227Z" style="fill:rgb(47,46,65);fill-rule:nonzero;"/>
    </g>
    <g transform="matrix(1,0,0,1,-97.8734,-94.0284)">
        <path d="M786.766,609.774L719.514,586.442L715.397,602.911C715.397,602.911 614.52,544.581 608.343,584.383C608.343,584.383 602.854,616.636 611.088,659.183L611.775,693.495C611.775,693.495 628.931,697.612 637.166,694.181L637.852,657.124C637.852,657.124 644.714,633.106 641.283,614.577C641.283,614.577 692.751,655.066 716.083,659.869C716.083,659.869 634.421,723.003 644.028,742.904C653.635,762.805 665.301,766.237 680.399,762.805C690.803,760.441 737.381,722.88 765.335,699.755C784.75,683.848 795.498,659.631 794.269,634.562C793.769,625.459 791.668,616.636 786.766,609.774Z" style="fill:rgb(47,46,65);fill-rule:nonzero;"/>
    </g>
    <g transform="matrix(1,0,0,1,-97.8734,-94.0284)">
        <path d="M612.461,705.847C612.461,705.847 611.775,697.612 607.657,701.044C603.54,704.475 589.129,717.513 589.129,717.513C589.129,717.513 536.974,723.238 568.542,736.277C582.957,738.445 597.695,736.543 611.088,730.787C624.482,725.031 646.163,739.792 645.439,731.054C644.714,722.317 636.479,707.725 636.479,707.725C636.479,707.725 626.872,714.769 615.892,705.161L612.461,705.847Z" style="fill:rgb(47,46,65);fill-rule:nonzero;"/>
    </g>
    <circle cx="650.463" cy="364.086" r="25.391" style="fill:rgb(255,184,184);"/>
    <g transform="matrix(1,0,0,1,-97.8734,-94.0284)">
        <path d="M768.924,459.487C768.924,459.487 773.041,480.074 780.59,484.878L738.729,534.287L722.946,519.19L734.612,498.603C734.612,498.603 747.65,491.054 743.533,480.76L768.924,459.487Z" style="fill:rgb(255,184,184);fill-rule:nonzero;"/>
    </g>
    <g transform="matrix(1,0,0,1,-97.8734,-94.0284)">
        <path d="M784.021,486.937C784.021,486.937 814.216,493.113 817.647,513.014C821.078,532.915 814.216,569.285 814.216,569.285L799.805,676.339C799.805,676.339 799.118,721.631 781.276,714.082C763.434,706.534 786.08,672.222 786.08,672.222L792.256,604.97C792.256,604.97 795.001,548.012 789.511,541.15L767.551,534.287C767.551,534.287 772.355,488.995 784.021,486.937Z" style="fill:rgb(255,184,184);fill-rule:nonzero;"/>
    </g>
    <g transform="matrix(1,0,0,1,-97.8734,-94.0284)">
        <path d="M734.612,498.603C734.612,498.603 714.025,497.916 700.986,514.386C687.947,530.856 656.38,543.208 656.38,543.208L577.463,574.089C577.463,574.089 563.052,548.698 554.13,557.619C545.209,566.541 570.6,589.186 582.266,586.441C593.932,583.697 664.615,562.423 664.615,562.423L720.887,537.032L734.612,498.603Z" style="fill:rgb(255,184,184);fill-rule:nonzero;"/>
    </g>
    <g transform="matrix(1,0,0,1,-97.8734,-94.0284)">
        <path d="M779.526,483.243C779.526,483.243 753.14,518.504 741.474,517.817C729.808,517.131 737.665,496.281 737.665,496.281L729.43,498.34C729.43,498.34 718.142,519.876 716.77,521.249C716.77,521.249 700.3,548.012 718.828,554.188L719.514,568.599C719.514,568.599 765.493,566.541 785.394,576.834L789.511,541.15C789.511,541.15 763.434,528.111 777.845,502.72C777.845,502.72 782.957,489.419 788.447,488.046L779.526,483.243Z" style="fill:rgb(63,61,86);fill-rule:nonzero;"/>
    </g>
    <g transform="matrix(1,0,0,1,-97.8734,-94.0284)">
        <path d="M786.423,671.878L681.428,748.737C681.428,748.737 787.109,686.29 786.423,671.878Z" style="fill-opacity:0.1;fill-rule:nonzero;"/>
    </g>
    <ellipse cx="676.883" cy="362.027" rx="1.982" ry="4.461" style="fill:rgb(255,184,184);"/>
    <g transform="matrix(1,0,0,1,-97.8734,-94.0284)">
        <path d="M720.342,444.63C720.342,444.63 713.225,396.565 764.046,411.395C764.046,411.395 799.999,404.083 812.698,448.986L825.587,496.064L819.687,492.998L817.079,499.001L807.664,501.578L803.461,493.62L801.689,503.416L724.342,512.63C724.342,512.63 758.657,491.437 758.501,454.638L752.023,461.751L720.342,444.63Z" style="fill:rgb(47,46,65);fill-rule:nonzero;"/>
    </g>
    <g id="bf2f48d4-d76c-43f7-acff-29e29e6968d0-252" transform="matrix(1,0,0,1,-97.8734,-94.0284)">
        <path d="M546.222,247.18L545.831,466.295L536.832,440.862L536.832,440.797L525.159,684.693C536.636,717.038 542.766,734.319 542.831,734.385C542.896,734.45 549.418,734.841 557.308,735.232C581.176,736.406 610.783,738.95 633.281,741.754C638.498,742.406 642.933,742.732 643.259,742.471C643.585,742.21 643.65,630.696 643.585,494.597L643.389,247.18L546.222,247.18L546.222,247.18Z" style="fill:rgb(177,6,15);fill-rule:nonzero;"/>
    </g>
    <g id="bfab83f1-a1e5-4c79-84d8-61287c2d74b0-253" transform="matrix(1,0,0,1,-97.8734,-94.0284)">
        <path d="M370.474,246.854L370.474,494.532C370.474,630.762 370.604,742.341 370.8,742.536C370.996,742.732 379.408,741.884 389.581,740.776C399.754,739.667 413.775,738.232 420.753,737.645C431.448,736.732 463.533,734.711 467.184,734.646C468.293,734.646 468.358,729.102 468.489,629.718L468.684,524.791L476.445,546.702C477.618,550.094 478.01,551.137 479.184,554.463L490.857,310.632C488.379,303.655 489.683,307.306 486.879,299.351C477.358,272.418 469.271,249.658 468.945,248.615L468.293,246.789L370.474,246.789L370.474,246.854Z" style="fill:rgb(177,6,15);fill-rule:nonzero;"/>
    </g>
    <g id="ed196cf9-a066-4498-9a77-a0c0f8894188-254" transform="matrix(1,0,0,1,-97.8734,-94.0284)">
        <path d="M370.474,246.854L468.619,524.987L468.619,524.856L476.379,546.768C519.485,668.781 542.636,734.254 542.766,734.385C542.831,734.45 549.352,734.841 557.243,735.232C581.111,736.406 610.718,738.95 633.216,741.754C638.368,742.406 642.868,742.732 643.128,742.471L545.831,466.23L545.831,466.295L536.832,440.862C528.028,416.016 522.159,399.387 486.748,299.35C477.227,272.418 469.141,249.658 468.815,248.615L468.163,246.789L419.318,246.789L370.474,246.854L370.474,246.854Z" style="fill:rgb(229,9,20);fill-rule:nonzero;"/>
    </g>
</svg>
