<?xml version="1.0" encoding="UTF-8" standalone="no"?>
<!DOCTYPE svg PUBLIC "-//W3C//DTD SVG 1.1//EN" "http://www.w3.org/Graphics/SVG/1.1/DTD/svg11.dtd">
<svg width="100%" height="100%" viewBox="0 0 1005 712" version="1.1" xmlns="http://www.w3.org/2000/svg" xmlns:xlink="http://www.w3.org/1999/xlink" xml:space="preserve" xmlns:serif="http://www.serif.com/" style="fill-rule:evenodd;clip-rule:evenodd;stroke-linecap:round;stroke-linejoin:round;stroke-miterlimit:10;">
    <g transform="matrix(0.631111,0,0,0.631111,80.3783,92.4405)">
        <g transform="matrix(1,0,0,1,-143.829,-186.043)">
            <path d="M1430.67,1036.19L1512.83,606.55C1514.74,596.58 1513.9,586.29 1510.41,576.76L1426.5,347.82C1419.13,327.72 1400.94,313.57 1379.64,311.39L432.88,214.16C419.18,212.75 405.43,216.45 394.28,224.53L126.74,418.55C109.66,430.94 100.99,451.88 104.32,472.72L194.46,1037.07L1430.67,1036.19Z" style="fill:rgb(243,243,243);fill-rule:nonzero;"/>
        </g>
        <g transform="matrix(1,0,0,1,-143.829,-186.043)">
            <path d="M1450.08,1038.22L169.96,1038.22C169.61,1038.22 169.37,1037.98 169.37,1037.63C169.37,1037.28 169.61,1037.04 169.96,1037.04L1450.19,1037.04C1450.54,1037.04 1450.78,1037.28 1450.78,1037.63C1450.78,1037.99 1450.43,1038.22 1450.08,1038.22Z" style="fill:rgb(178,182,187);fill-rule:nonzero;"/>
        </g>
    </g>
    <g transform="matrix(0.92228,0,0,0.92228,35.4573,107.082)">
        <rect x="838.334" y="231.233" width="1.875" height="335.244" style="fill:rgb(63,61,86);"/>
    </g>
    <g transform="matrix(0.92228,0,0,0.92228,35.4573,107.082)">
        <ellipse cx="839.633" cy="454.323" rx="36.557" ry="83.424" style="fill:rgb(63,61,86);"/>
    </g>
    <g transform="matrix(0.92228,0,0,0.92228,35.4573,107.082)">
        <ellipse cx="839.633" cy="264.04" rx="36.557" ry="83.424" style="fill:rgb(63,61,86);"/>
    </g>
    <g transform="matrix(0.92228,0,0,0.92228,5.40604,9.18196)">
        <path d="M268.773,587.551C268.804,650.582 231.343,672.605 185.124,672.627C184.051,672.628 182.982,672.617 181.919,672.593C179.777,672.548 177.657,672.451 175.56,672.303C133.844,669.37 101.421,646.251 101.393,587.632C101.363,526.969 178.858,450.376 184.669,444.713C184.675,444.713 184.675,444.713 184.68,444.707C184.9,444.492 185.013,444.384 185.013,444.384C185.013,444.384 268.743,524.525 268.773,587.551Z" style="fill:rgb(108,99,255);fill-rule:nonzero;"/>
    </g>
    <g transform="matrix(0.92228,0,0,0.92228,5.40604,9.18196)">
        <path d="M182.074,662.988L212.662,620.206L181.999,667.682L181.919,672.593C179.777,672.548 177.657,672.451 175.56,672.303L178.827,609.245L178.801,608.757L178.857,608.665L179.168,602.706L148.382,555.141L179.258,598.242L179.336,599.506L181.804,551.863L155.445,502.709L182.123,543.49L184.669,444.713L184.679,444.384L184.68,444.707L184.286,522.604L210.483,491.71L184.176,529.312L183.504,571.972L207.97,531.022L183.409,578.244L183.035,601.965L218.542,544.962L182.901,610.24L182.074,662.988Z" style="fill:rgb(63,61,86);fill-rule:nonzero;"/>
    </g>
    <g transform="matrix(0.742865,0,0,0.742865,124.567,145.236)">
        <g id="bf2f48d4-d76c-43f7-acff-29e29e6968d0-252" transform="matrix(1,0,0,1,-97.8734,-94.0284)">
            <path d="M546.222,247.18L545.831,466.295L536.832,440.862L536.832,440.797L525.159,684.693C536.636,717.038 542.766,734.319 542.831,734.385C542.896,734.45 549.418,734.841 557.308,735.232C581.176,736.406 610.783,738.95 633.281,741.754C638.498,742.406 642.933,742.732 643.259,742.471C643.585,742.21 643.65,630.696 643.585,494.597L643.389,247.18L546.222,247.18L546.222,247.18Z" style="fill:rgb(177,6,15);fill-rule:nonzero;"/>
        </g>
        <g id="bfab83f1-a1e5-4c79-84d8-61287c2d74b0-253" transform="matrix(1,0,0,1,-97.8734,-94.0284)">
            <path d="M370.474,246.854L370.474,494.532C370.474,630.762 370.604,742.341 370.8,742.536C370.996,742.732 379.408,741.884 389.581,740.776C399.754,739.667 413.775,738.232 420.753,737.645C431.448,736.732 463.533,734.711 467.184,734.646C468.293,734.646 468.358,729.102 468.489,629.718L468.684,524.791L476.445,546.702C477.618,550.094 478.01,551.137 479.184,554.463L490.857,310.632C488.379,303.655 489.683,307.306 486.879,299.351C477.358,272.418 469.271,249.658 468.945,248.615L468.293,246.789L370.474,246.789L370.474,246.854Z" style="fill:rgb(177,6,15);fill-rule:nonzero;"/>
        </g>
        <g id="ed196cf9-a066-4498-9a77-a0c0f8894188-254" transform="matrix(1,0,0,1,-97.8734,-94.0284)">
            <path d="M370.474,246.854L468.619,524.987L468.619,524.856L476.379,546.768C519.485,668.781 542.636,734.254 542.766,734.385C542.831,734.45 549.352,734.841 557.243,735.232C581.111,736.406 610.718,738.95 633.216,741.754C638.368,742.406 642.868,742.732 643.128,742.471L545.831,466.23L545.831,466.295L536.832,440.862C528.028,416.016 522.159,399.387 486.748,299.35C477.227,272.418 469.141,249.658 468.815,248.615L468.163,246.789L419.318,246.789L370.474,246.854L370.474,246.854Z" style="fill:rgb(229,9,20);fill-rule:nonzero;"/>
        </g>
    </g>
    <g transform="matrix(0.92228,0,0,0.92228,21.097,32.8293)">
        <g transform="matrix(0.772886,0,0,0.772886,150.793,-113.347)">
            <g transform="matrix(1,0,0,1,-579.063,0)">
                <path d="M1079.54,454.09L1065.15,457.94L1055.34,463.94L1061.95,463.93L1069.74,463.94L1090.41,463.94C1090.92,464.26 1091.32,464.65 1091.61,465.09C1095.22,470.78 1081.61,471.24 1081.22,474.27C1081.22,474.3 1081.21,474.33 1081.21,474.36C1081.02,476.37 1082.77,478.03 1084.78,477.87C1089.22,477.52 1100.81,477.59 1109.81,464.45L1108.82,450.16C1108.82,450.16 1079.8,450.36 1078.05,450.71C1077.11,450.9 1064.77,455.31 1064.77,455.31C1064.77,455.31 1052.8,463.8 1052.57,463.93L1065.98,463.92" style="fill:rgb(247,152,152);fill-rule:nonzero;"/>
            </g>
            <g transform="matrix(1,0,0,1,-579.063,0)">
                <path d="M1057.88,463.74L1067.45,457.94L1081.58,455.44" style="fill:none;fill-rule:nonzero;stroke:black;stroke-opacity:0.2;stroke-width:1px;"/>
            </g>
        </g>
        <g transform="matrix(0.705654,0,0,0.705654,284.795,45.8655)">
            <g transform="matrix(1,0,0,1,-717.17,-184.07)">
                <path d="M1347.45,413.55L1350.39,413.73C1350.75,413.73 1351.01,413.46 1351.1,413.11C1351.1,412.75 1350.83,412.49 1350.48,412.4L1347.54,412.22C1346.83,412.13 1346.2,411.51 1346.29,410.79C1346.38,410.08 1347,409.45 1347.72,409.54C1348.08,409.54 1348.34,409.27 1348.43,408.92C1348.52,408.56 1348.16,408.3 1347.81,408.21C1346.38,408.12 1345.13,409.19 1344.95,410.62C1344.95,412.21 1346.03,413.46 1347.45,413.55Z" style="fill-opacity:0.3;fill-rule:nonzero;"/>
            </g>
            <g transform="matrix(1,0,0,1,-717.17,-184.07)">
                <path d="M1344.99,486.31L1332.44,469.18L1318.63,484.5L1328.63,455.78L1340.13,446.39C1340.13,446.39 1338.82,447.46 1337.71,453.68C1336.96,457.88 1336.97,465.45 1336.97,465.45C1337.57,468.98 1339.4,473.75 1340.77,476.91L1344.99,486.31Z" style="fill-opacity:0.4;fill-rule:nonzero;"/>
            </g>
            <g transform="matrix(1,0,0,1,-717.17,-184.07)">
                <path d="M1370.82,482.85L1380.98,476.38L1400.15,490.64L1390.04,458.55L1381.8,446.89L1381.87,452.71C1381.99,463.15 1378.66,473.43 1372.01,481.47C1371.61,481.95 1371.22,482.4 1370.82,482.85Z" style="fill-opacity:0.4;fill-rule:nonzero;"/>
            </g>
            <g transform="matrix(1,0,0,1,-717.17,-184.07)">
                <path d="M1378.02,363.9C1389.23,363.9 1392.99,376.46 1392.99,391.64C1392.99,406.81 1389.63,415.7 1378.42,415.7C1367.21,415.7 1358.12,406.81 1358.12,391.64C1358.12,376.46 1366.81,363.9 1378.02,363.9Z" style="fill:rgb(63,66,73);fill-rule:nonzero;"/>
            </g>
            <g transform="matrix(1,0,0,1,-717.17,-184.07)">
                <path d="M1376.37,650.83C1363.88,540.27 1386.36,472.71 1394.31,449.42L1381.73,446.03L1340.15,446.39L1334.88,448.26C1333.81,468.96 1319,561.77 1304.72,650.74L1376.38,650.74L1376.38,650.83L1376.37,650.83Z" style="fill:white;fill-rule:nonzero;"/>
            </g>
            <g transform="matrix(1,0,0,1,-717.17,-184.07)">
                <path d="M1333.8,1018.13L1272.67,1019.56L1295.78,1003.05C1299.62,1000.28 1302.03,995.91 1302.21,991.18L1303.01,973.06L1333.53,973.15L1333.8,1018.13Z" style="fill:rgb(247,152,152);fill-rule:nonzero;"/>
            </g>
            <g transform="matrix(1,0,0,1,-717.17,-184.07)">
                <path d="M1324.16,996.98L1324.16,996.62C1324.34,994.57 1322.91,992.78 1320.95,992.52L1302.48,989.84L1302.66,986.18L1333.54,986.18L1333.81,1017.21L1305.52,1014.11L1313.82,1010.81C1319.61,1008.49 1323.63,1003.14 1324.16,996.98Z" style="fill-opacity:0.15;fill-rule:nonzero;"/>
            </g>
            <g transform="matrix(1,0,0,1,-717.17,-184.07)">
                <path d="M1403.58,1017.06L1377.53,1017.06L1372.71,972.98L1403.49,973.06L1403.58,1017.06Z" style="fill:rgb(247,152,152);fill-rule:nonzero;"/>
            </g>
            <g transform="matrix(1,0,0,1,-717.17,-184.07)">
                <path d="M1397.07,1009.65L1396.45,996.09C1396.36,994.31 1395.02,992.88 1393.24,992.61L1374.5,989.75L1374.05,986L1403.41,986.09L1403.5,1017.32L1397.07,1009.65Z" style="fill-opacity:0.15;fill-rule:nonzero;"/>
            </g>
            <g transform="matrix(1,0,0,1,-717.17,-184.07)">
                <path d="M1422.23,625.75L1405.27,986.18L1371.45,986.18L1358.96,692.32C1358.78,690.36 1357.18,688.93 1355.21,688.93C1353.34,688.93 1351.73,690.36 1351.55,692.32L1321.86,823.12L1334.6,986.18L1300.78,986.18L1275.16,823.33L1298.63,625.75L1422.23,625.75Z" style="fill:rgb(77,97,252);fill-rule:nonzero;"/>
            </g>
            <g transform="matrix(1,0,0,1,-717.17,-184.07)">
                <path d="M1422.23,625.75L1405.27,986.18L1371.45,986.18L1358.96,692.32C1358.78,690.36 1357.18,688.93 1355.21,688.93C1353.34,688.93 1351.73,690.36 1351.55,692.32L1321.86,823.12L1334.6,986.18L1300.78,986.18L1275.16,823.33L1298.63,625.75L1422.23,625.75Z" style="fill:white;fill-opacity:0.2;fill-rule:nonzero;"/>
            </g>
            <g transform="matrix(1,0,0,1,-717.17,-184.07)">
                <path d="M1401.62,1001.53L1400.82,1000.73C1394.75,994.66 1384.31,994.75 1378.42,1001L1377.97,1001.54C1376.45,1003.15 1375.65,1005.2 1375.65,1007.25L1375.65,1010.64C1375.65,1012.6 1375.38,1014.57 1374.76,1016.44L1371.99,1025.63C1371.28,1027.86 1370.92,1030.18 1370.92,1032.5L1370.92,1033.66C1370.92,1035.44 1372.53,1036.87 1374.4,1036.87L1406.44,1036.87C1408.4,1036.87 1409.92,1035.44 1409.92,1033.66L1409.92,1033.21C1409.92,1030.53 1409.47,1027.86 1408.58,1025.27L1405.37,1016.26C1404.66,1014.21 1404.21,1012.07 1404.21,1009.83L1404.12,1007.24C1404.03,1005.19 1403.14,1003.14 1401.62,1001.53Z" style="fill:rgb(63,66,73);fill-rule:nonzero;"/>
            </g>
            <g transform="matrix(1,0,0,1,-717.17,-184.07)">
                <path d="M1406.17,986.18L1370.12,986.18L1369.41,978.78L1406.08,978.78L1406.17,986.18Z" style="fill:rgb(77,97,252);fill-rule:nonzero;"/>
            </g>
            <g transform="matrix(1,0,0,1,-717.17,-184.07)">
                <path d="M1406.17,986.18L1391.09,986.18L1390.73,978.78L1406.08,978.78L1406.17,986.18Z" style="fill-opacity:0.15;fill-rule:nonzero;"/>
            </g>
            <g transform="matrix(1,0,0,1,-717.17,-184.07)">
                <path d="M1409.92,1031.16L1409.92,1033.66C1409.92,1035.44 1408.31,1036.87 1406.44,1036.87L1374.4,1036.87C1372.44,1036.87 1370.92,1035.44 1370.92,1033.66L1370.92,1032.5C1370.92,1032.05 1370.92,1031.61 1371.01,1031.16L1409.92,1031.16Z" style="fill-opacity:0.5;fill-rule:nonzero;"/>
            </g>
            <g transform="matrix(1,0,0,1,-717.17,-184.07)">
                <path d="M1334.6,1007.87L1334.6,1030.45C1334.6,1034.11 1331.66,1037.05 1328,1037.05L1251.26,1037.05C1249.74,1037.05 1248.49,1035.8 1248.49,1034.28C1248.49,1028.93 1251.97,1024.11 1257.06,1022.41L1274.37,1016.7L1296.32,999.66C1298.55,997.88 1301.76,997.96 1303.99,999.84L1313.72,1008.14C1315.15,1009.39 1317.11,1009.75 1318.9,1009.21L1331.21,1005.37C1333,1004.92 1334.6,1006.17 1334.6,1007.87Z" style="fill:rgb(63,66,73);fill-rule:nonzero;"/>
            </g>
            <g transform="matrix(1,0,0,1,-717.17,-184.07)">
                <path d="M1328,1037.05L1251.26,1037.05C1249.74,1037.05 1248.49,1035.8 1248.49,1034.28C1248.49,1033.3 1248.58,1032.41 1248.85,1031.51L1334.52,1031.51C1333.98,1034.64 1331.3,1037.05 1328,1037.05Z" style="fill-rule:nonzero;"/>
            </g>
            <g transform="matrix(1,0,0,1,-717.17,-184.07)">
                <path d="M1296.77,1008.67C1296.95,1008.67 1297.13,1008.58 1297.22,1008.49C1297.49,1008.22 1297.49,1007.78 1297.22,1007.51L1292.58,1002.51C1292.31,1002.24 1291.87,1002.24 1291.6,1002.51C1291.33,1002.78 1291.33,1003.22 1291.6,1003.49L1296.24,1008.49C1296.41,1008.58 1296.59,1008.67 1296.77,1008.67Z" style="fill:white;fill-rule:nonzero;"/>
            </g>
            <g transform="matrix(1,0,0,1,-717.17,-184.07)">
                <path d="M1293.11,1011.53C1293.29,1011.53 1293.47,1011.44 1293.56,1011.35C1293.83,1011.08 1293.83,1010.64 1293.56,1010.37L1288.92,1005.37C1288.65,1005.1 1288.21,1005.1 1287.94,1005.37C1287.67,1005.64 1287.67,1006.08 1287.94,1006.35L1292.58,1011.35C1292.75,1011.44 1292.93,1011.53 1293.11,1011.53Z" style="fill:white;fill-rule:nonzero;"/>
            </g>
            <g transform="matrix(1,0,0,1,-717.17,-184.07)">
                <path d="M1289.45,1014.38C1289.63,1014.38 1289.81,1014.29 1289.9,1014.2C1290.17,1013.93 1290.17,1013.49 1289.9,1013.22L1285.26,1008.22C1284.99,1007.95 1284.55,1007.95 1284.28,1008.22C1284.01,1008.49 1284.01,1008.93 1284.28,1009.2L1288.92,1014.2C1289,1014.29 1289.18,1014.38 1289.45,1014.38Z" style="fill:white;fill-rule:nonzero;"/>
            </g>
            <g transform="matrix(1,0,0,1,-717.17,-184.07)">
                <path d="M1383.77,1009.12C1383.86,1009.12 1384.04,1009.12 1384.13,1009.03C1390.2,1006 1395.91,1009.03 1395.91,1009.03C1396.27,1009.21 1396.8,1009.12 1396.98,1008.67C1397.16,1008.31 1397.07,1007.78 1396.62,1007.6C1396.35,1007.42 1390.19,1004.21 1383.32,1007.6C1382.96,1007.78 1382.78,1008.31 1382.96,1008.67C1383.15,1008.94 1383.42,1009.12 1383.77,1009.12Z" style="fill:white;fill-rule:nonzero;"/>
            </g>
            <g transform="matrix(1,0,0,1,-717.17,-184.07)">
                <path d="M1383.77,1013.22C1383.86,1013.22 1384.04,1013.22 1384.13,1013.13C1390.29,1010.1 1395.91,1013.13 1395.91,1013.13C1396.27,1013.31 1396.8,1013.22 1396.98,1012.77C1397.16,1012.41 1397.07,1011.88 1396.62,1011.7C1396.35,1011.52 1390.19,1008.31 1383.32,1011.7C1382.96,1011.88 1382.78,1012.41 1382.96,1012.77C1383.15,1013.04 1383.42,1013.22 1383.77,1013.22Z" style="fill:white;fill-rule:nonzero;"/>
            </g>
            <g transform="matrix(1,0,0,1,-717.17,-184.07)">
                <path d="M1383.77,1017.24C1383.86,1017.24 1384.04,1017.24 1384.13,1017.15C1390.2,1014.12 1395.91,1017.15 1395.91,1017.15C1396.27,1017.33 1396.8,1017.24 1396.98,1016.79C1397.16,1016.43 1397.07,1015.9 1396.62,1015.72C1396.35,1015.54 1390.19,1012.33 1383.32,1015.72C1382.96,1015.9 1382.78,1016.43 1382.96,1016.79C1383.15,1017.06 1383.42,1017.24 1383.77,1017.24Z" style="fill:white;fill-rule:nonzero;"/>
            </g>
            <g transform="matrix(1,0,0,1,-717.17,-184.07)">
                <path d="M1319.6,984.67L1301.18,824.69L1333.44,704.64C1334.51,695.72 1342.1,689.02 1351.02,689.02L1355.21,689.02C1353.34,689.02 1351.73,690.45 1351.55,692.41L1321.86,823.12L1334.48,984.66L1319.6,984.67Z" style="fill-opacity:0.15;fill-rule:nonzero;"/>
            </g>
            <g transform="matrix(1,0,0,1,-717.17,-184.07)">
                <path d="M1335.5,986.18L1299.53,986.18L1298.75,978.78L1336.21,978.78L1335.5,986.18Z" style="fill:rgb(77,97,252);fill-rule:nonzero;"/>
            </g>
            <g transform="matrix(1,0,0,1,-717.17,-184.07)">
                <path d="M1335.5,986.18L1319.65,986.18L1319,978.78L1336.21,978.78L1335.5,986.18Z" style="fill-opacity:0.15;fill-rule:nonzero;"/>
            </g>
            <g transform="matrix(1,0,0,1,-717.17,-184.07)">
                <path d="M1340.85,397.66C1340.85,397.66 1377.26,374.82 1378.69,402.75L1379.23,409.98L1381.73,446.57C1381.73,447.64 1340.41,448 1340.59,446.66L1342.91,424.98C1342.46,423.11 1342.2,420.96 1342.2,418.55C1341.83,407.57 1340.85,397.66 1340.85,397.66Z" style="fill:rgb(247,152,152);fill-rule:nonzero;"/>
            </g>
            <g transform="matrix(1,0,0,1,-717.17,-184.07)">
                <path d="M1385.83,447.66C1385.9,448.07 1385.92,448.45 1385.92,448.87C1385.92,456.52 1374.83,462.71 1361.15,462.71C1347.47,462.71 1336.38,456.51 1336.38,448.87C1336.38,448.04 1336.51,447.22 1336.76,446.43" style="fill:rgb(77,97,252);fill-rule:nonzero;"/>
            </g>
            <g transform="matrix(1,0,0,1,-717.17,-184.07)">
                <path d="M1361.16,459.08C1372.56,459.08 1381.8,453.918 1381.8,447.55C1381.8,441.182 1372.56,436.02 1361.16,436.02C1349.76,436.02 1340.52,441.182 1340.52,447.55C1340.52,453.918 1349.76,459.08 1361.16,459.08Z" style="fill:rgb(247,152,152);fill-rule:nonzero;"/>
            </g>
            <g transform="matrix(1,0,0,1,-717.17,-184.07)">
                <path d="M1337.64,399.35C1344.44,399.35 1349.95,393.839 1349.95,387.04C1349.95,380.241 1344.44,374.73 1337.64,374.73C1330.84,374.73 1325.33,380.241 1325.33,387.04C1325.33,393.839 1330.84,399.35 1337.64,399.35Z" style="fill:rgb(63,66,73);fill-rule:nonzero;"/>
            </g>
            <g transform="matrix(1,0,0,1,-717.17,-184.07)">
                <path d="M1336.74,377.94C1336.74,377.94 1323.8,432.2 1351.64,435.85C1375.73,439.06 1378.41,401.49 1378.41,401.49L1377.25,377.13L1336.74,377.94Z" style="fill:rgb(247,152,152);fill-rule:nonzero;"/>
            </g>
            <g transform="matrix(1,0,0,1,-717.17,-184.07)">
                <path d="M1374.22,395.08C1374.5,408.19 1369.32,415.64 1369.32,415.64C1339.49,411.61 1334.86,417.09 1334.86,417.09C1334.86,417.09 1336.67,431.97 1348.97,435.19C1361.26,438.41 1379.83,430.81 1379.77,413.99C1379.75,409.83 1372.94,387.37 1372.94,387.37L1374.22,395.08Z" style="fill:rgb(63,66,73);fill-rule:nonzero;"/>
            </g>
            <g transform="matrix(1,0,0,1,-717.17,-184.07)">
                <path d="M1349.59,425.68C1349.59,425.77 1349.68,425.77 1349.59,425.68C1351.91,425.86 1352.98,425.95 1352.98,425.95C1353.43,425.95 1353.69,425.68 1353.78,425.24C1353.78,424.79 1353.51,424.44 1353.07,424.44C1353.07,424.44 1352,424.35 1349.77,424.17C1349.32,424.17 1348.97,424.44 1348.97,424.79C1348.97,425.33 1349.24,425.68 1349.59,425.68Z" style="fill-opacity:0.3;fill-rule:nonzero;"/>
            </g>
            <g transform="matrix(1,0,0,1,-717.17,-184.07)">
                <path d="M1348.43,422.51C1354.5,423.4 1357.26,420.1 1358.25,418.49C1358.43,418.13 1358.25,416.85 1357.89,416.58C1357.53,416.4 1344.95,419.61 1344.77,419.97C1344.68,420.33 1344.95,421.61 1345.31,421.79C1346.47,422.15 1347.54,422.42 1348.43,422.51Z" style="fill:white;fill-rule:nonzero;"/>
            </g>
            <g transform="matrix(1,0,0,1,-717.17,-184.07)">
                <path d="M1350.65,385.41C1361.56,385.41 1370.41,378.394 1370.41,369.74C1370.41,361.086 1361.56,354.07 1350.65,354.07C1339.74,354.07 1330.89,361.086 1330.89,369.74C1330.89,378.394 1339.74,385.41 1350.65,385.41Z" style="fill:rgb(63,66,73);fill-rule:nonzero;"/>
            </g>
            <g transform="matrix(1,0,0,1,-717.17,-184.07)">
                <path d="M1376.28,364.16C1383.11,364.16 1388.66,371.15 1388.66,379.77C1388.66,388.39 1383.12,397.25 1376.28,397.25C1369.44,397.25 1363.9,388.39 1363.9,379.77C1363.9,371.15 1369.45,364.16 1376.28,364.16Z" style="fill:rgb(63,66,73);fill-rule:nonzero;"/>
            </g>
            <g transform="matrix(1,0,0,1,-717.17,-184.07)">
                <path d="M1379.22,411.76C1379.22,411.76 1376.9,411.94 1375.65,410.96L1379.58,417.03L1379.22,411.76Z" style="fill-opacity:0.15;fill-rule:nonzero;"/>
            </g>
            <g transform="matrix(1,0,0,1,-717.17,-184.07)">
                <path d="M1375.8,397.17C1375.8,397.17 1379.67,392.22 1385.02,394.54C1391.09,397.22 1389.84,410.96 1379.58,411.76C1374.23,412.21 1375.3,409.08 1376.19,404.89C1376.28,399.89 1375.8,397.17 1375.8,397.17Z" style="fill:rgb(247,152,152);fill-rule:nonzero;"/>
            </g>
            <g transform="matrix(1,0,0,1,-717.17,-184.07)">
                <path d="M1385.29,398.11C1384.22,397.4 1383.24,397.13 1382.35,397.31C1381.46,397.49 1380.65,398.11 1380.03,399.18C1379.41,400.25 1379.05,401.5 1379.05,402.93L1378.96,404.09C1378.96,404.45 1379.23,404.71 1379.58,404.71C1379.94,404.71 1380.2,404.44 1380.2,404.09L1380.29,402.93C1380.29,402.57 1380.47,400.79 1381.09,399.81C1381.54,399.1 1382.07,398.65 1382.61,398.47C1383.15,398.38 1383.86,398.56 1384.57,399.01C1384.84,399.19 1385.28,399.1 1385.46,398.83C1385.65,398.73 1385.56,398.38 1385.29,398.11Z" style="fill-opacity:0.3;fill-rule:nonzero;"/>
            </g>
            <g transform="matrix(1,0,0,1,-717.17,-184.07)">
                <path d="M1336.56,382.32C1337.64,383.13 1339.99,384.21 1339.99,384.21C1340.24,384.3 1340.64,384.26 1340.76,383.93C1340.88,383.6 1340.81,383.28 1340.48,383.16C1340.48,383.16 1337.24,381.24 1336.94,381.03C1336.36,380.53 1335.44,379.86 1334.43,378.71C1334.24,378.45 1333.88,378.41 1333.62,378.6C1333.36,378.79 1333.32,379.15 1333.51,379.41C1334.44,380.7 1336.2,382.04 1336.56,382.32Z" style="fill:rgb(247,152,152);fill-rule:nonzero;"/>
            </g>
            <g transform="matrix(1,0,0,1,-717.17,-184.07)">
                <path d="M1341.4,439.81L1342.19,431.49C1345.17,434.35 1350.09,436.56 1357.76,435.77C1357.76,435.77 1362.96,435.39 1368.51,432.4C1368.91,432.15 1369.16,432.12 1369.4,432.33C1369.59,432.59 1369.5,432.83 1369.28,433.04C1368.19,433.97 1364.04,436.04 1357.53,436.99C1348.46,442.79 1341.4,439.81 1341.4,439.81Z" style="fill-opacity:0.15;fill-rule:nonzero;"/>
            </g>
            <g transform="matrix(1,0,0,1,-717.17,-184.07)">
                <path d="M1356.73,405.52C1357.96,405.52 1358.96,404.521 1358.96,403.29C1358.96,402.058 1357.96,401.06 1356.73,401.06C1355.5,401.06 1354.5,402.058 1354.5,403.29C1354.5,404.521 1355.5,405.52 1356.73,405.52Z" style="fill:rgb(33,37,43);fill-rule:nonzero;"/>
            </g>
            <g transform="matrix(1,0,0,1,-717.17,-184.07)">
                <path d="M1355.75,403.02C1356,403.02 1356.2,402.818 1356.2,402.57C1356.2,402.321 1356,402.12 1355.75,402.12C1355.5,402.12 1355.3,402.321 1355.3,402.57C1355.3,402.818 1355.5,403.02 1355.75,403.02Z" style="fill:white;fill-rule:nonzero;"/>
            </g>
            <g transform="matrix(1,0,0,1,-717.17,-184.07)">
                <path d="M1339.07,405.6C1340.3,405.6 1341.3,404.601 1341.3,403.37C1341.3,402.138 1340.3,401.14 1339.07,401.14C1337.84,401.14 1336.84,402.138 1336.84,403.37C1336.84,404.601 1337.84,405.6 1339.07,405.6Z" style="fill:rgb(33,37,43);fill-rule:nonzero;"/>
            </g>
            <g transform="matrix(1,0,0,1,-717.17,-184.07)">
                <path d="M1338.08,403.109C1338.33,403.109 1338.53,402.908 1338.53,402.659C1338.53,402.411 1338.33,402.209 1338.08,402.209C1337.83,402.209 1337.63,402.411 1337.63,402.659C1337.63,402.908 1337.83,403.109 1338.08,403.109Z" style="fill:white;fill-rule:nonzero;"/>
            </g>
            <g transform="matrix(1,0,0,1,-717.17,-184.07)">
                <path d="M1329.52,400.79L1329.52,403.29C1329.52,408.11 1333.45,412.04 1338.27,412.04C1343.09,412.04 1347.02,408.11 1347.02,403.29L1347.02,400.79C1347.02,400.08 1346.84,399.36 1346.4,398.83L1349.79,398.83C1349.34,399.37 1349.08,400.08 1349.08,400.79L1349.08,403.29C1349.08,408.11 1353.01,412.04 1357.83,412.04C1362.65,412.04 1366.58,408.11 1366.58,403.29L1366.58,400.79C1366.58,399.01 1365.15,397.58 1363.37,397.58L1332.75,397.58C1330.94,397.57 1329.52,399 1329.52,400.79ZM1352.18,398.91L1363.25,398.91C1364.32,398.91 1365.21,399.8 1365.21,400.87L1365.21,403.37C1365.21,407.47 1361.82,410.78 1357.71,410.78C1353.61,410.78 1350.3,407.39 1350.3,403.28L1350.3,400.78C1350.31,399.72 1351.2,398.91 1352.18,398.91ZM1330.68,400.88C1330.68,399.81 1331.57,398.92 1332.64,398.92L1343.71,398.92C1344.78,398.92 1345.67,399.81 1345.67,400.88L1345.67,403.38C1345.67,407.48 1342.28,410.79 1338.17,410.79C1334.07,410.79 1330.76,407.4 1330.76,403.29L1330.68,400.88Z" style="fill:rgb(33,37,43);fill-rule:nonzero;"/>
            </g>
            <g transform="matrix(1,0,0,1,-717.17,-184.07)">
                <path d="M1308.46,634.68L1384.22,634.68C1384.67,634.68 1384.93,634.32 1384.93,633.97C1384.93,633.61 1384.57,633.26 1384.22,633.26L1308.46,633.26C1308.01,633.26 1307.75,633.62 1307.75,633.97C1307.74,634.32 1308.01,634.68 1308.46,634.68Z" style="fill-opacity:0.15;fill-rule:nonzero;"/>
            </g>
            <g transform="matrix(1,0,0,1,-717.17,-184.07)">
                <path d="M1337.64,447.46C1337.64,447.46 1334.43,558.47 1325.95,633.43L1315.06,633.43L1337.64,447.46Z" style="fill-opacity:0.15;fill-rule:nonzero;"/>
            </g>
            <g transform="matrix(1,0,0,1,-717.17,-184.07)">
                <path d="M1362.36,633.87L1407.25,639.94C1407.25,639.94 1408.41,643.15 1409.84,647.88L1422.33,653.5L1405.37,978.59L1390.82,978.68L1394.57,695.35C1356.11,681.62 1362.36,633.87 1362.36,633.87Z" style="fill-opacity:0.15;fill-rule:nonzero;"/>
            </g>
            <g transform="matrix(1,0,0,1,-717.17,-184.07)">
                <path d="M1297.93,683.4C1297.84,683.4 1297.75,683.31 1297.66,683.31L1304.17,633.43L1325.85,633.43L1321.92,669.57C1320.68,681.08 1308.55,688.13 1297.93,683.4Z" style="fill-opacity:0.15;fill-rule:nonzero;"/>
            </g>
            <g transform="matrix(1,0,0,1,-717.17,-184.07)">
                <path d="M1320.41,461.38L1354.94,461.38L1357.53,463.61C1358.15,464.15 1359.05,464.23 1359.76,463.7L1363.15,461.38L1401.08,461.38L1401.08,465.31L1320.41,465.31L1320.41,461.38Z" style="fill:rgb(77,97,252);fill-opacity:0.15;fill-rule:nonzero;"/>
            </g>
            <g transform="matrix(1,0,0,1,-717.17,-184.07)">
                <rect x="1320.41" y="478.24" width="80.67" height="3.93" style="fill:rgb(77,97,252);fill-opacity:0.15;fill-rule:nonzero;"/>
            </g>
            <g transform="matrix(1,0,0,1,-717.17,-184.07)">
                <rect x="1320.41" y="495.2" width="80.67" height="3.93" style="fill-opacity:0.15;fill-rule:nonzero;"/>
            </g>
            <g transform="matrix(1,0,0,1,-717.17,-184.07)">
                <rect x="1320.41" y="512.07" width="80.67" height="3.93" style="fill-opacity:0.15;fill-rule:nonzero;"/>
            </g>
            <g transform="matrix(1,0,0,1,-717.17,-184.07)">
                <rect x="1320.41" y="529.02" width="80.67" height="3.93" style="fill-opacity:0.15;fill-rule:nonzero;"/>
            </g>
            <g transform="matrix(1,0,0,1,-717.17,-184.07)">
                <rect x="1320.41" y="545.89" width="80.67" height="3.93" style="fill-opacity:0.15;fill-rule:nonzero;"/>
            </g>
            <g transform="matrix(1,0,0,1,-717.17,-184.07)">
                <rect x="1320.41" y="562.84" width="80.67" height="3.93" style="fill-opacity:0.15;fill-rule:nonzero;"/>
            </g>
            <g transform="matrix(1,0,0,1,-717.17,-184.07)">
                <rect x="1316.4" y="579.71" width="84.69" height="3.93" style="fill-opacity:0.15;fill-rule:nonzero;"/>
            </g>
            <g transform="matrix(1,0,0,1,-717.17,-184.07)">
                <rect x="1313.72" y="596.66" width="87.36" height="3.93" style="fill-opacity:0.15;fill-rule:nonzero;"/>
            </g>
            <g transform="matrix(1,0,0,1,-717.17,-184.07)">
                <rect x="1308.46" y="613.53" width="92.63" height="3.93" style="fill-opacity:0.15;fill-rule:nonzero;"/>
            </g>
            <g transform="matrix(1,0,0,1,-717.17,-184.07)">
                <path d="M1424.15,683.12L1426.46,683.35L1425.88,549.81L1445.24,489.23C1447.72,482.35 1447.5,474.66 1444.12,468.17C1441.39,462.92 1438.88,459.09 1431.92,456.35L1381.8,446.9C1381.8,446.9 1382.66,462.01 1377.28,473.63C1374.43,479.77 1364.28,490.65 1363.82,491.7C1362.22,495.35 1361.03,620.03 1363.22,679.45L1418.22,683.23C1419.93,683.26 1421.52,683.23 1421.52,683.23C1421.79,683.05 1422.23,671.4 1422.23,671.4L1424.15,683.12Z" style="fill:rgb(33,37,43);fill-rule:nonzero;"/>
            </g>
            <g transform="matrix(1,0,0,1,-717.17,-184.07)">
                <path d="M1286.06,487.88L1290.9,680.5C1290.92,680.72 1323.02,680.37 1323.02,680.37C1327.09,666.25 1344.99,486.31 1344.99,486.31C1344.99,486.31 1337.01,469.78 1337.01,464.61C1337.01,449.08 1340.13,446.38 1340.13,446.38L1305.86,457.71C1295.52,460.93 1285.43,473.78 1286.06,487.88Z" style="fill:rgb(33,37,43);fill-rule:nonzero;"/>
            </g>
            <g transform="matrix(1,0,0,1,-717.17,-184.07)">
                <path d="M1306.97,538.98L1299.9,534.63C1297.29,533.04 1294.52,531.67 1291.58,530.66L1279.29,527.42C1278.99,527.31 1278.67,527.33 1278.44,527.61C1277.18,530.08 1278.34,532.09 1280.57,533.62C1282.01,534.53 1284.48,535.79 1285.98,536.33C1287.23,536.83 1286.41,537.66 1285.69,537.43L1260.94,533.28C1259.83,533.11 1258.71,533.83 1258.49,534.87C1258.25,536.04 1258.9,537.21 1260.06,537.45C1264.64,538.58 1275.18,541.24 1275.18,541.24L1257.42,540.28C1256.29,540.24 1255.27,541.1 1255.11,542.21C1254.96,543.64 1255.98,544.87 1257.34,545.07C1262.86,545.83 1275.65,547.82 1275.65,547.82L1260.1,547.32C1259.02,547.35 1258.2,548.17 1258.16,549.31C1258.12,550.44 1258.92,551.39 1260.04,551.55C1264.78,552.01 1274.39,553.7 1274.39,553.7L1264.57,553.37C1263.74,553.44 1263.11,554.23 1263.13,554.99C1263.2,555.82 1263.79,556.48 1264.59,556.66L1301.94,562.39L1315.27,566.73L1337.51,547.54L1306.97,538.98Z" style="fill:rgb(247,152,152);fill-rule:nonzero;"/>
            </g>
            <g transform="matrix(1,0,0,1,-717.17,-184.07)">
                <path d="M1307.65,539.14L1299.98,561.97L1301.96,562.27L1303.41,562.74L1307.65,539.14Z" style="fill-opacity:0.15;fill-rule:nonzero;"/>
            </g>
            <g transform="matrix(1,0,0,1,-717.17,-184.07)">
                <path d="M1446.07,486.96L1414.64,584.74C1411.31,595.1 1399.94,600.45 1389.85,596.55L1300.59,562.23L1308.04,539.04L1379.44,557.21L1404.8,471.91" style="fill:rgb(33,37,43);fill-rule:nonzero;"/>
            </g>
            <g transform="matrix(1,0,0,1,-717.17,-184.07)">
                <path d="M1390.26,584.22C1397.23,586.74 1405.12,583.47 1407.94,574.72L1436.21,482.39C1438.73,472.51 1438.24,464.11 1431.92,456.36L1433.57,457.36C1445.04,463.95 1449.76,477.84 1445.15,489.86L1414.67,584.67C1411.34,595.03 1399.94,600.46 1389.82,596.37L1300.59,562.25L1302.31,556.9L1390.26,584.22Z" style="fill-opacity:0.4;fill-rule:nonzero;"/>
            </g>
            <g transform="matrix(1,0,0,1,-717.17,-184.07)">
                <path d="M1331.59,545.12L1332.14,543.7L1368.73,552.93L1393.8,505.11C1394.08,504.54 1394.93,504.82 1394.79,505.52L1379.32,557.27L1368.06,554.4L1331.59,545.12Z" style="fill-opacity:0.4;fill-rule:nonzero;"/>
            </g>
            <g transform="matrix(1,0,0,1,-717.17,-184.07)">
                <path d="M1294.55,525.91C1288.82,522.53 1290.6,516.61 1290.6,516.61L1291.54,516.89C1291.45,517.08 1289.94,522.15 1295.11,525.16L1294.55,525.91Z" style="fill-opacity:0.15;fill-rule:nonzero;"/>
            </g>
            <g transform="matrix(1,0,0,1,-717.17,-184.07)">
                <path d="M1340.14,446.39L1107.17,450.2L1107.17,477.3L1230.24,484.96L1301.18,499.13" style="fill:rgb(33,37,43);fill-rule:nonzero;"/>
            </g>
        </g>
    </g>
</svg>
